<svg id="Layer_1" data-name="Layer 1" xmlns="http://www.w3.org/2000/svg" viewBox="0 0 126.51 171.86"><defs><style>.cls-1{fill:#f5c08c;}.cls-2{fill:#ffcf9f;}.cls-3{fill:#ededed;}.cls-4{fill:#61554e;}.cls-5{fill:#deaa78;}.cls-6{fill:#e6b07c;}.cls-7{fill:#93ba77;}.cls-7,.cls-8{fill-rule:evenodd;}.cls-8{fill:#6b8756;}.cls-9{fill:#f6f6f6;}.cls-10{fill:#575756;}</style></defs><title>main_logo</title><path class="cls-1" d="M207.74,263.38l-3.93-.69-5.65-1.86-8.76-9a4.24,4.24,0,0,0-4.58-1L182,247.94a4.23,4.23,0,0,0-6-.08l-.06.06a4.09,4.09,0,0,0-.93,1.35,4.58,4.58,0,0,0-3.92,1.8l-.06.07a4.61,4.61,0,0,0,.86,6.45l14.33,11,.14.08a3.66,3.66,0,0,0,.42.26c.13.07.25.14.39.2s.26.1.4.15l.48.14.16,0,17.74,3.17a4.61,4.61,0,0,0,5.34-3.72l0-.09A4.54,4.54,0,0,0,207.74,263.38Z" transform="translate(-166.58 -103.62)"/><path class="cls-2" d="M253.62,250.56l-11.37-1.67a22.9,22.9,0,0,0-8.21.29L227,250.73a7.92,7.92,0,0,1-2.66.14L208,249a4.59,4.59,0,0,0-5.11,4v.09a4.61,4.61,0,0,0,4,5.11l11,1.29-10.64,3.79-16.8.15L175.3,256a4.6,4.6,0,0,0-6.16,2.07l0,.08a4.6,4.6,0,0,0,2.08,6.17s18.2,8.5,18.26,8.5,13.47,2.32,17.74,2.67c.8.06,1.92,0,3.06-.06,4.74-.11,18-.75,28.57-4.42l14.82-2.52Z" transform="translate(-166.58 -103.62)"/><rect class="cls-3" x="247.87" y="246.65" width="14.97" height="25.94" transform="translate(-168.18 -102.03) rotate(-0.36)"/><rect class="cls-4" x="93.11" y="141.44" width="33.4" height="29.17"/><path class="cls-3" d="M273.77,249.83a1.6,1.6,0,1,1,2,1A1.6,1.6,0,0,1,273.77,249.83Z" transform="translate(-166.58 -103.62)"/><path class="cls-3" d="M268.58,249.83a1.6,1.6,0,1,1,2,1A1.6,1.6,0,0,1,268.58,249.83Z" transform="translate(-166.58 -103.62)"/><path class="cls-3" d="M263.43,249.84a1.6,1.6,0,1,1,2,1A1.61,1.61,0,0,1,263.43,249.84Z" transform="translate(-166.58 -103.62)"/><path class="cls-5" d="M223.31,172.54l-7.09,2.73a6.16,6.16,0,0,0-3.76,7.51l0,.11a5.46,5.46,0,0,0,7.29,3.27l7.09-2.72C232.89,180.86,230.51,170.89,223.31,172.54Z" transform="translate(-166.58 -103.62)"/><path class="cls-5" d="M222.23,163.4l-5.59,2.46a5.25,5.25,0,0,0-2.59,6.64l0,.09a4.59,4.59,0,0,0,6.13,2.81l5.59-2.46C231.39,170.63,228.46,161.34,222.23,163.4Z" transform="translate(-166.58 -103.62)"/><path class="cls-6" d="M224.49,183.29,214,187.78c-3,1.17-3.67,2.79-2.69,5.77l-1,1.85a5.46,5.46,0,0,0,7.29,3.27l10.51-4.49C234.08,191.61,231.69,181.64,224.49,183.29Z" transform="translate(-166.58 -103.62)"/><path class="cls-1" d="M220,195.59c-1.1,0-4.41.47-4.41.47a5.87,5.87,0,0,0-5.3,6.27v.11c.29,3.11-4.34,6.07-1.12,5.72L221,207C229.82,205.49,228.15,194.41,220,195.59Z" transform="translate(-166.58 -103.62)"/><polygon class="cls-1" points="23.68 81.26 35.07 100.83 37.1 83.65 23.68 81.26"/><path class="cls-7" d="M245.71,235.55c-26.38,11.75-52.76-11.74-79.13,0V204.66c26.37-11.74,52.75,11.74,79.13,0Z" transform="translate(-166.58 -103.62)"/><path class="cls-8" d="M243,208.4V234c-24.6,8.81-49.2-11-73.8-2.14V206.26c24.6-8.81,49.2,10.94,73.8,2.14Zm2.67-3.74c-26.38,11.74-52.76-11.74-79.13,0v30.89c26.37-11.74,52.75,11.75,79.13,0V204.66Z" transform="translate(-166.58 -103.62)"/><path class="cls-8" d="M214.06,221.8c0,6-3.55,10.24-7.92,9.25s-7.92-6.6-7.92-12.63,3.55-10.25,7.92-9.26S214.06,215.76,214.06,221.8Z" transform="translate(-166.58 -103.62)"/><path class="cls-9" d="M183.46,223.34a5.81,5.81,0,0,1-1.57-.2,4.84,4.84,0,0,1-1.19-.49A2.57,2.57,0,0,1,180,222a1,1,0,0,1-.26-.63,1,1,0,0,1,.21-.59.64.64,0,0,1,.48-.32.56.56,0,0,1,.4.2q.21.21.54.48a4.65,4.65,0,0,0,.84.48,3.23,3.23,0,0,0,1.3.22v-4.93l-1.23-.46a4.23,4.23,0,0,1-1.11-.61,2.76,2.76,0,0,1-.79-.93,3,3,0,0,1-.31-1.46,3.46,3.46,0,0,1,.3-1.5,3,3,0,0,1,.79-1,3.4,3.4,0,0,1,1.11-.63,5.37,5.37,0,0,1,1.24-.26v-.56a.36.36,0,0,1,.14-.27.51.51,0,0,1,.35-.11.52.52,0,0,1,.33.12.38.38,0,0,1,.15.28V210a4.44,4.44,0,0,1,1,.12,5.6,5.6,0,0,1,1,.29,2.07,2.07,0,0,1,.7.42.69.69,0,0,1,.27.52,1.11,1.11,0,0,1-.18.53.49.49,0,0,1-.49.28.68.68,0,0,1-.33-.11c-.11-.07-.26-.15-.44-.24a3.06,3.06,0,0,0-.63-.26,3.94,3.94,0,0,0-.87-.17v4.24c.4.16.79.34,1.18.54a4.44,4.44,0,0,1,1,.77,3.53,3.53,0,0,1,.75,1.14,4,4,0,0,1,.29,1.63,3.33,3.33,0,0,1-.91,2.56,4,4,0,0,1-2.36,1V224a.33.33,0,0,1-.15.26.52.52,0,0,1-.33.12.57.57,0,0,1-.35-.13.36.36,0,0,1-.14-.27Zm-2-10.11a1.82,1.82,0,0,0,.16.82,1.47,1.47,0,0,0,.44.55,2.75,2.75,0,0,0,.65.4c.24.11.5.22.78.32v-3.9a2.77,2.77,0,0,0-.79.16,2.17,2.17,0,0,0-.64.34,1.47,1.47,0,0,0-.44.55A1.64,1.64,0,0,0,181.51,213.23Zm4.71,6.54a2.61,2.61,0,0,0-.15-.92,2.39,2.39,0,0,0-.4-.68,2.57,2.57,0,0,0-.59-.5,5.46,5.46,0,0,0-.72-.38v4.55a2.28,2.28,0,0,0,1.37-.63A2,2,0,0,0,186.22,219.77Z" transform="translate(-166.58 -103.62)"/><path class="cls-9" d="M228.35,230.11a4.79,4.79,0,0,1-1.57-.25,4.91,4.91,0,0,1-1.19-.61,3.08,3.08,0,0,1-.75-.73,1.19,1.19,0,0,1-.26-.68.9.9,0,0,1,.21-.55.57.57,0,0,1,.48-.26.67.67,0,0,1,.4.25,5.48,5.48,0,0,0,.54.53,4.21,4.21,0,0,0,.84.55,3,3,0,0,0,1.3.27V223.7c-.41-.16-.82-.32-1.23-.51a4.16,4.16,0,0,1-1.11-.69,3.33,3.33,0,0,1-.79-1,3.4,3.4,0,0,1-.31-1.5,3.19,3.19,0,0,1,.3-1.46,2.72,2.72,0,0,1,.79-1,3.35,3.35,0,0,1,1.11-.53,5.87,5.87,0,0,1,1.24-.22v-.56a.36.36,0,0,1,.14-.27.54.54,0,0,1,.68,0,.34.34,0,0,1,.15.27v.53a5.92,5.92,0,0,1,1,.08,7.17,7.17,0,0,1,.95.2,2.18,2.18,0,0,1,.7.34.61.61,0,0,1,.27.49,1.21,1.21,0,0,1-.18.55.6.6,0,0,1-.49.35.72.72,0,0,1-.33-.08,3.88,3.88,0,0,0-.44-.2,3.83,3.83,0,0,0-.63-.22,5.07,5.07,0,0,0-.87-.12v4.24c.4.14.79.3,1.18.48a3.83,3.83,0,0,1,1.05.67,3.09,3.09,0,0,1,.75,1,3.69,3.69,0,0,1,.29,1.58,3.75,3.75,0,0,1-.91,2.69,3.94,3.94,0,0,1-2.36,1.19v.66a.34.34,0,0,1-.15.27.52.52,0,0,1-.33.12.53.53,0,0,1-.35-.12.36.36,0,0,1-.14-.27Zm-1.95-10.19a1.85,1.85,0,0,0,.16.82,1.61,1.61,0,0,0,.44.59,3.19,3.19,0,0,0,.65.43,7,7,0,0,0,.78.34v-3.91a3.17,3.17,0,0,0-.79.15,2.12,2.12,0,0,0-.64.31,1.43,1.43,0,0,0-.44.51A1.61,1.61,0,0,0,226.4,219.92Zm4.71,6.51a2.52,2.52,0,0,0-.15-.91,2.1,2.1,0,0,0-.4-.65,2.4,2.4,0,0,0-.59-.46,6,6,0,0,0-.72-.36v4.56a2.24,2.24,0,0,0,1.37-.71A2.14,2.14,0,0,0,231.11,226.43Z" transform="translate(-166.58 -103.62)"/><path class="cls-8" d="M173.34,206.62a3,3,0,1,1-3-3A3,3,0,0,1,173.34,206.62Z" transform="translate(-166.58 -103.62)"/><path class="cls-8" d="M173.34,230.33a3,3,0,1,1-3-3A3,3,0,0,1,173.34,230.33Z" transform="translate(-166.58 -103.62)"/><path class="cls-8" d="M244.57,233.31a3,3,0,1,1-3-3A3,3,0,0,1,244.57,233.31Z" transform="translate(-166.58 -103.62)"/><path class="cls-8" d="M244.57,209.61a3,3,0,1,1-3-3A3,3,0,0,1,244.57,209.61Z" transform="translate(-166.58 -103.62)"/><path class="cls-2" d="M198.39,150.36h0s-15.74,22.9-8.15,34.52l5.2,2.71a11.76,11.76,0,0,1,6,11.3c-.05.63-.09,1.18-.11,1.59l-.21,3.05c-.33,4.85-.6,8.23-.75,9.2a6.14,6.14,0,0,0,4.37,7.05l.12,0c3,.67,5.91-1.58,6.44-5.06a209.79,209.79,0,0,0,2.32-22.52v0c.07-1.22.92-2,1.7-2.88,4.78-5.25,6.8-11.15,8.23-19.7,2.18-13.11-3.26-19.25-3.26-19.25v-22H198.39Z" transform="translate(-166.58 -103.62)"/><rect class="cls-3" x="201.44" y="126.5" width="16.14" height="27.97" transform="translate(-98.85 245.5) rotate(-89.64)"/><rect class="cls-10" x="27.17" width="31.45" height="32.19"/><path class="cls-3" d="M220.06,120.62a1.72,1.72,0,1,0,1.09-3.27,1.74,1.74,0,0,0-2.19,1.09A1.72,1.72,0,0,0,220.06,120.62Z" transform="translate(-166.58 -103.62)"/><path class="cls-3" d="M220.06,126.22A1.73,1.73,0,1,0,219,124,1.73,1.73,0,0,0,220.06,126.22Z" transform="translate(-166.58 -103.62)"/><path class="cls-3" d="M220.06,131.77a1.72,1.72,0,1,0-1.1-2.18A1.73,1.73,0,0,0,220.06,131.77Z" transform="translate(-166.58 -103.62)"/></svg>