<svg id="_Layer_" data-name="&lt;Layer&gt;" xmlns="http://www.w3.org/2000/svg" viewBox="0 0 2558.12 1515.64"><defs><style>.cls-1{fill:#deebe9;}.cls-2{fill:#bed5dc;}.cls-3{opacity:0.6;}.cls-4{fill:#b2c9c6;}.cls-5{fill:#cfd3a3;}.cls-6{fill:#c4c695;}.cls-7{opacity:0.5;}.cls-8{fill:#74a1bd;}.cls-9{fill:#436e8e;}.cls-10{fill:#9bbcb6;}.cls-11{fill:#6f4975;}.cls-12{fill:#56335b;}.cls-13{fill:#2f1a31;}.cls-14{fill:#e28569;}.cls-15{fill:#f7b686;}.cls-16{fill:#ce745f;}.cls-17{fill:#060633;}.cls-18{fill:#fff;}.cls-19{fill:#e08b65;}.cls-20{fill:#96a7e2;}.cls-21{fill:#a5b9ef;}.cls-22{fill:#d89364;}</style></defs><title>main_img</title><path class="cls-1" d="M2329.38,1662.41c-213,24-432.34,14-880.63-11.14-251.72-14.12-757.85,9.28-1010.48,11.14-184.18,1.35-333.5-122.67-333.5-274V444.68c0-223,149.63-282.9,333.5-274,170.75,8.26,421.91,41,683.72,20.95,311.39-23.83,902.42-44.08,1207.39-20.95,183.41,13.91,333.5,38.42,333.5,274v943.73C2662.88,1581.09,2511.86,1641.81,2329.38,1662.41Z" transform="translate(-104.77 -160.49)"/><ellipse class="cls-2" cx="1333.88" cy="1277.84" rx="966.29" ry="125.06"/><g class="cls-3"><path class="cls-4" d="M1934.52,1206.33s213.26-753,415.41-687.44-254.7,472.9-309.84,694.07Z" transform="translate(-104.77 -160.49)"/></g><path class="cls-5" d="M2014.31,1130.9s261-451.45,405.22-374.53-255.26,263-326.23,396.82Z" transform="translate(-104.77 -160.49)"/><path class="cls-6" d="M2058.39,1143.76c47.33-93.35,130.45-177.71,191.85-232,66.56-58.9,122.6-96.16,123.16-96.53l-2.31-3.48c-.56.37-56.85,37.79-123.63,96.88-61.66,54.58-145.17,139.35-192.8,233.29Z" transform="translate(-104.77 -160.49)"/><path class="cls-4" d="M2401.1,1209.71c-62.64,17.93-45.75,113.43-119.34,100.35-62.24-11.1-67.77-16.41-87.81,2.63a100.37,100.37,0,0,0-17.44,22.26c-5.72,9.81-17.06,24.45-35.44,28.94-112.33,27.41-278.75-130.42-166.29-230.82,8.12-7.25,20.42-10.65,34.07-13.72,74.07-16.59,99.65,16.22,152.8-75.85s141.51,29.12,191.4,21.37,93.14-25.71,135.74,24.9S2463.75,1191.82,2401.1,1209.71Z" transform="translate(-104.77 -160.49)"/><g class="cls-7"><path class="cls-8" d="M2019,1253l-2.62-3.39c1.49-1.16,153.34-115.93,482.38-145.28l.38,4.27C2171.37,1137.79,2020.52,1251.8,2019,1253Z" transform="translate(-104.77 -160.49)"/><path class="cls-8" d="M2215.71,1112.22c-46-36.26-55.73-66.82-56.12-68.1l4.1-1.25c.09.3,9.81,30.65,54.67,66Z" transform="translate(-104.77 -160.49)"/><path class="cls-8" d="M2226.27,1157.86c-13.63-20.72-14.51-51.81-2.55-89.91a286.54,286.54,0,0,1,22.22-51.54l3.7,2.15c-.51.89-51.12,89.3-19.79,137Z" transform="translate(-104.77 -160.49)"/><path class="cls-8" d="M2312.51,1144.73c-5.46-4-8.44-6.62-8.57-6.74l2.86-3.19c.62.56,63.46,55.88,150.29,47.55l.41,4.26C2387.53,1193.33,2332.84,1159.6,2312.51,1144.73Z" transform="translate(-104.77 -160.49)"/><path class="cls-8" d="M2361.74,1240.81c-21.31-20.85-28.43-42.61-30.65-57.2-2.42-15.87.22-26.71.34-27.16l4.16,1c-.11.41-9.87,42.09,29.15,80.26Z" transform="translate(-104.77 -160.49)"/></g><path class="cls-4" d="M2439.47,668.74c16.29-11.26,25.39-8.46,30.63-.87s4.66,17.09-11.64,28.36c-29.67,20.52-53.52,16.69-53.52,16.69S2409.35,689.56,2439.47,668.74Z" transform="translate(-104.77 -160.49)"/><path class="cls-4" d="M2395.69,998.28c20.75-3.56,28.06,2,29.45,10.11s-3.64,15.79-24.4,19.35c-37.8,6.48-58.61-5.11-58.61-5.11S2357.33,1004.86,2395.69,998.28Z" transform="translate(-104.77 -160.49)"/><path class="cls-4" d="M2333.63,965.8c11.18-16.34,19.7-17.65,26.11-13.27s8.28,12.8-2.91,29.15c-20.37,29.78-41.82,36.23-41.82,36.23S2313,996,2333.63,965.8Z" transform="translate(-104.77 -160.49)"/><path class="cls-9" d="M1820.52,656.14a10.34,10.34,0,0,1-10.2-8.93l-1.92-14.32a8.58,8.58,0,0,0-5.91-7.09c-.86-.26-1.71-.55-2.55-.85a8.38,8.38,0,0,0-2.81-.48,8.61,8.61,0,0,0-6.32,2.78l-10.44,11.32a10.3,10.3,0,0,1-14.55.6l-12.21-11.25a10.29,10.29,0,0,1-.59-14.57l9-9.71a8.6,8.6,0,0,0,1.22-10l-.06-.1a8.55,8.55,0,0,0-7.54-4.48,7.41,7.41,0,0,0-1.15.08l-12.3,1.65a9.29,9.29,0,0,1-1.39.1,10.34,10.34,0,0,1-10.2-8.93l-2.22-16.45a10.3,10.3,0,0,1,8.85-11.59l12.31-1.65a8.63,8.63,0,0,0,7.21-6.52l0-.12a8.6,8.6,0,0,0-3.8-9.29l-11.22-7a10.31,10.31,0,0,1-3.27-14.19l8.8-14.08a10.3,10.3,0,0,1,14.2-3.27l13,8.16a8.69,8.69,0,0,0,9.41-.19c.74-.51,1.48-1,2.24-1.49a8.62,8.62,0,0,0,3.84-8.4l-1.93-14.32A10.3,10.3,0,0,1,1796.9,470l16.44-2.22a10.66,10.66,0,0,1,1.38-.09,10.32,10.32,0,0,1,10.2,8.93l1.43,10.65a8.61,8.61,0,0,0,7.21,7.35,67.47,67.47,0,0,1,9.19,2.19,8.74,8.74,0,0,0,9-2.34l9.26-10a10.31,10.31,0,0,1,14.56-.58l12.2,11.25a10.29,10.29,0,0,1,.58,14.56l-6.54,7.09a8.54,8.54,0,0,0-1.08,10.19c.41.69.8,1.39,1.18,2.09a8.51,8.51,0,0,0,7.49,4.4,8.89,8.89,0,0,0,1.15-.08l8.69-1.16a10.66,10.66,0,0,1,1.38-.09,10.34,10.34,0,0,1,10.2,8.93l2.21,16.44a10.3,10.3,0,0,1-8.84,11.59l-8.68,1.16a8.57,8.57,0,0,0-7.2,6.46c-.18.78-.38,1.56-.59,2.34a8.53,8.53,0,0,0,3.73,9.53l8.19,5.12a10.29,10.29,0,0,1,3.27,14.2l-8.79,14.06a10.31,10.31,0,0,1-14.19,3.28L1868.3,618a8.76,8.76,0,0,0-9.26.1,67.27,67.27,0,0,1-8.27,4.55,8.62,8.62,0,0,0-5,9l1.43,10.65a10.31,10.31,0,0,1-8.84,11.58l-16.44,2.21A10.81,10.81,0,0,1,1820.52,656.14Zm-23.39-33.38a10.26,10.26,0,0,1,3.38.58c.82.29,1.65.57,2.48.83a10.31,10.31,0,0,1,7.11,8.49L1812,647a8.61,8.61,0,0,0,8.5,7.45,7.54,7.54,0,0,0,1.16-.08l16.45-2.2a8.61,8.61,0,0,0,7.37-9.66l-1.43-10.66a10.31,10.31,0,0,1,6-10.76,67.38,67.38,0,0,0,8.07-4.43,10.49,10.49,0,0,1,11.09-.12l11.57,7.23a8.61,8.61,0,0,0,11.84-2.73l8.8-14.07a8.6,8.6,0,0,0-2.74-11.84L1890.5,590a10.23,10.23,0,0,1-4.48-11.43c.2-.75.4-1.52.58-2.28a10.26,10.26,0,0,1,8.63-7.76l8.68-1.17a8.59,8.59,0,0,0,7.38-9.66l-2.22-16.44a8.61,8.61,0,0,0-8.5-7.45,7.41,7.41,0,0,0-1.15.08l-8.69,1.16a10.66,10.66,0,0,1-1.38.09,10.2,10.2,0,0,1-9-5.29c-.37-.69-.76-1.37-1.15-2a10.24,10.24,0,0,1,1.29-12.22l6.55-7.09a8.59,8.59,0,0,0-.49-12.14l-12.2-11.25a8.59,8.59,0,0,0-12.14.48l-9.26,10a10.37,10.37,0,0,1-7.57,3.3,10.21,10.21,0,0,1-3.15-.49,66,66,0,0,0-9-2.14,10.31,10.31,0,0,1-8.62-8.8l-1.43-10.65a8.62,8.62,0,0,0-8.51-7.45,8.89,8.89,0,0,0-1.15.08l-16.44,2.21a8.59,8.59,0,0,0-7.37,9.66l1.92,14.32a10.31,10.31,0,0,1-4.61,10.07c-.74.47-1.46.95-2.18,1.45a10.13,10.13,0,0,1-5.81,1.82,10.33,10.33,0,0,1-5.48-1.58l-13.06-8.16A8.58,8.58,0,0,0,1748.7,502l-8.8,14.07a8.58,8.58,0,0,0,2.73,11.84l11.22,7a10.28,10.28,0,0,1,4.55,11.13l-.86-.07.83.2a10.32,10.32,0,0,1-8.65,7.81l-12.31,1.65a8.59,8.59,0,0,0-7.37,9.67l2.21,16.45a8.62,8.62,0,0,0,8.51,7.45,9.17,9.17,0,0,0,1.16-.08l12.3-1.66a10.66,10.66,0,0,1,1.38-.09,10.26,10.26,0,0,1,9,5.35l.07.12a10.31,10.31,0,0,1-1.46,11.95l-9,9.71a8.59,8.59,0,0,0,.5,12.15L1767,637.91a8.61,8.61,0,0,0,12.14-.49l10.44-11.33A10.31,10.31,0,0,1,1797.13,622.76Z" transform="translate(-104.77 -160.49)"/><path class="cls-9" d="M1823.46,599.9c-18.56,0-39.23-18.27-41.73-36.88-1.24-9.23,2-18.65,9.24-26.52a43.44,43.44,0,0,1,25.78-13.7,26.5,26.5,0,0,1,3.56-.24c18.52,0,33.52,19.05,35.91,36.84a37,37,0,0,1-6.23,26.45,33.17,33.17,0,0,1-22.92,13.81A26.91,26.91,0,0,1,1823.46,599.9Zm-3.15-75.63a26.48,26.48,0,0,0-3.33.22,41.69,41.69,0,0,0-24.75,13.17c-6.85,7.48-10,16.41-8.81,25.13,2.4,17.87,22.23,35.4,40,35.4a25.14,25.14,0,0,0,3.38-.22,31.45,31.45,0,0,0,21.75-13.11,35.29,35.29,0,0,0,5.94-25.24C1852.23,542.55,1837.94,524.27,1820.31,524.27Z" transform="translate(-104.77 -160.49)"/><path class="cls-2" d="M1367.53,715l46.19-22.62a35.61,35.61,0,0,0,16.33-47.63l-27.47-56.17a35.62,35.62,0,0,0-47.65-16.34l-32.68,16a35.58,35.58,0,0,1-41.72-7.74c-2-2.19-4.12-4.36-6.24-6.48a35.39,35.39,0,0,1-7-39.5l13.58-30.1a35.61,35.61,0,0,0-17.84-47.11l-57-25.69A35.61,35.61,0,0,0,1159,449.41l-13.6,30.12a35.36,35.36,0,0,1-34.16,20.91q-4.47-.27-8.94-.37a35.57,35.57,0,0,1-33.47-26.14l-9.66-35.06A35.61,35.61,0,0,0,1015.34,414L955,430.59a35.62,35.62,0,0,0-24.89,43.78L943.78,524a35.75,35.75,0,0,1-11.33,36.61,249.48,249.48,0,0,0-25,24.72,35.8,35.8,0,0,1-41.61,9.22L828.9,577.89a35.62,35.62,0,0,0-47.11,17.84l-25.68,57a35.61,35.61,0,0,0,17.83,47.1l49.65,22.38a35.62,35.62,0,0,1,21.12,31.92c0,3.34.14,6.68.31,10a35.44,35.44,0,0,1-19.93,33.55l-52.15,25.49a35.63,35.63,0,0,0-16.35,47.65L784.08,927a35.62,35.62,0,0,0,47.65,16.34l44.79-21.91a35.62,35.62,0,0,1,41,7l.36.35A35.54,35.54,0,0,1,925,968.45l-19.26,42.68a35.61,35.61,0,0,0,17.83,47.12l57.07,25.7a35.6,35.6,0,0,0,47.1-17.85l19.2-42.66a35.51,35.51,0,0,1,34.43-20.93l.56,0a35.64,35.64,0,0,1,32.38,26.1l13.22,48a35.61,35.61,0,0,0,43.81,24.89l60.33-16.64a35.61,35.61,0,0,0,24.86-43.8l-15.43-56A35.44,35.44,0,0,1,1253,948c2.59-2.07,5.16-4.2,7.68-6.38a35.55,35.55,0,0,1,37.89-5.31l49.65,22.4a35.61,35.61,0,0,0,47.11-17.82l25.72-57a35.63,35.63,0,0,0-17.83-47.11l-36.93-16.65a35.79,35.79,0,0,1-20.65-37.25,249.24,249.24,0,0,0,1.92-35.09A35.77,35.77,0,0,1,1367.53,715Zm-142.28,97c-29.85,66.21-137.13,100.26-203.35,70.4s-87.14-121.79-57.26-187.95,125.27-81.59,191.49-51.74S1255.11,745.8,1225.25,812Z" transform="translate(-104.77 -160.49)"/><path class="cls-9" d="M1182.81,1136.35a36.77,36.77,0,0,1-35.35-27l-13.22-48.05a34.56,34.56,0,0,0-31.41-25.32l-.56,0a34.47,34.47,0,0,0-33.39,20.3L1049.67,1099a36.75,36.75,0,0,1-33.47,21.63,36.29,36.29,0,0,1-15-3.25l-57.07-25.7a36.68,36.68,0,0,1-18.37-48.53L945,1000.42a34.63,34.63,0,0,0-6.9-38.46l-.35-.35A34.55,34.55,0,0,0,898,954.83l-44.79,21.91a36.67,36.67,0,0,1-49.08-16.83L776.6,903.69a36.66,36.66,0,0,1,16.84-49.07l52.15-25.5a34.31,34.31,0,0,0,19.33-32.53c-.17-3.33-.27-6.71-.31-10a34.6,34.6,0,0,0-20.49-31l-49.65-22.38A36.73,36.73,0,0,1,776.1,684.7l25.68-57a36.66,36.66,0,0,1,48.53-18.38L887.22,626a34.06,34.06,0,0,0,14.08,3,35.09,35.09,0,0,0,26.29-12,252.82,252.82,0,0,1,25.13-24.83,34.84,34.84,0,0,0,11-35.51l-13.64-49.62A36.74,36.74,0,0,1,975.71,462l60.32-16.6A36.63,36.63,0,0,1,1081.14,471l9.65,35.06a34.3,34.3,0,0,0,32.46,25.36c3,.06,6,.19,9,.37a34.33,34.33,0,0,0,33.13-20.29l13.6-30.12a36.67,36.67,0,0,1,48.5-18.35l57,25.7a36.67,36.67,0,0,1,18.37,48.52l-13.57,30.1a34.43,34.43,0,0,0,6.74,38.3c2.12,2.13,4.23,4.32,6.27,6.52a34.53,34.53,0,0,0,40.46,7.51l32.68-16a36.67,36.67,0,0,1,49.08,16.83L1452,676.68a36.73,36.73,0,0,1-16.82,49.06L1389,748.36a34.88,34.88,0,0,0-19.33,31.81,249.67,249.67,0,0,1-1.93,35.23,34.61,34.61,0,0,0,20,36.15l36.93,16.65A36.7,36.7,0,0,1,1443,916.72l-25.72,57a36.76,36.76,0,0,1-33.46,21.62h0a36.43,36.43,0,0,1-15.07-3.26l-49.65-22.4a34.88,34.88,0,0,0-14.43-3.11,34.08,34.08,0,0,0-22.32,8.25c-2.52,2.18-5.11,4.33-7.72,6.41a34.31,34.31,0,0,0-11.58,36l15.43,56a36.73,36.73,0,0,1-25.6,45.12L1192.59,1135A36.89,36.89,0,0,1,1182.81,1136.35Zm-82.56-102.57c.71,0,1.43,0,2.15.06l.55,0a36.7,36.7,0,0,1,33.36,26.88l13.21,48.06A34.48,34.48,0,0,0,1192,1133l60.33-16.64a34.59,34.59,0,0,0,24.11-42.48l-15.43-56a36.44,36.44,0,0,1,12.31-38.28c2.58-2.05,5.16-4.19,7.65-6.35a36.24,36.24,0,0,1,23.72-8.77,37,37,0,0,1,15.31,3.3l49.65,22.4a34.19,34.19,0,0,0,14.19,3.07,34.63,34.63,0,0,0,31.51-20.36l25.71-57a34.54,34.54,0,0,0-17.29-45.69l-36.93-16.65a36.73,36.73,0,0,1-21.27-38.36,250.07,250.07,0,0,0,1.91-34.94A37,37,0,0,1,1388,746.44l46.19-22.62a34.58,34.58,0,0,0,15.84-46.2l-27.47-56.18a34.54,34.54,0,0,0-46.22-15.85l-32.68,16a36.66,36.66,0,0,1-43-8c-2-2.17-4.11-4.35-6.21-6.45a36.59,36.59,0,0,1-7.18-40.7l13.57-30.1a34.53,34.53,0,0,0-17.3-45.69l-57-25.69a34.25,34.25,0,0,0-14.17-3.06,34.63,34.63,0,0,0-31.5,20.33l-13.6,30.12a36.41,36.41,0,0,1-35.21,21.54c-2.94-.17-5.94-.3-8.9-.36a36.46,36.46,0,0,1-34.48-26.93l-9.65-35.06a34.49,34.49,0,0,0-42.47-24.14L976.28,464a34.59,34.59,0,0,0-24.14,42.46l13.65,49.62a37,37,0,0,1-11.68,37.71,251.72,251.72,0,0,0-24.92,24.61,37.15,37.15,0,0,1-27.89,12.71,36.1,36.1,0,0,1-15-3.22l-36.91-16.64a34.18,34.18,0,0,0-14.18-3.07,34.62,34.62,0,0,0-31.51,20.37l-25.69,57a34.59,34.59,0,0,0,17.3,45.68L845,753.64a36.76,36.76,0,0,1,21.75,32.89c0,3.3.14,6.65.31,10a36.45,36.45,0,0,1-20.53,34.57l-52.15,25.49a34.55,34.55,0,0,0-15.86,46.21L806,959a34.52,34.52,0,0,0,46.21,15.86L897,952.9a36.71,36.71,0,0,1,42.23,7.2l.34.35a36.78,36.78,0,0,1,7.34,40.85L927.68,1044a34.55,34.55,0,0,0,17.29,45.7l57.07,25.7a34.2,34.2,0,0,0,14.16,3.06,34.62,34.62,0,0,0,31.52-20.37l19.21-42.67A36.64,36.64,0,0,1,1100.25,1033.78Z" transform="translate(-104.77 -160.49)"/><path class="cls-4" d="M707.67,524.42c-12,11.81-19.32,11.51-23.94,6.8s-4.82-12,7.18-23.83c21.85-21.51,40.8-23.39,40.8-23.39S729.84,502.59,707.67,524.42Z" transform="translate(-104.77 -160.49)"/><path class="cls-4" d="M733.6,630.37c-7.53,15-14.56,17.14-20.46,14.19s-8.44-9.82-.91-24.88c13.72-27.42,31-35.33,31-35.33S747.51,602.55,733.6,630.37Z" transform="translate(-104.77 -160.49)"/><path class="cls-4" d="M796.4,907.29l-3.14.51c-.08-.49-8.23-49.25-41.91-115.21C720.26,731.73,660.46,643.37,552.07,568l1.81-2.61c109,75.76,169.12,164.64,200.37,225.86C788.13,857.64,796.32,906.8,796.4,907.29Z" transform="translate(-104.77 -160.49)"/><path class="cls-4" d="M667.37,666.42l-3-1c36.72-109.71-28.63-215.25-29.29-216.31l2.69-1.7C638.42,448.47,704.58,555.25,667.37,666.42Z" transform="translate(-104.77 -160.49)"/><path class="cls-4" d="M608.23,628c-31.38,7.9-59.06-1.84-59.37-2l1.08-3c.35.13,35.8,12.56,71.37-2.84l1.27,2.93A94.11,94.11,0,0,1,608.23,628Z" transform="translate(-104.77 -160.49)"/><path class="cls-4" d="M545.67,551.32c20.05,10.63,23.52,18.52,20.43,24.34s-11.56,7.4-31.62-3.23c-36.54-19.36-48.61-39.28-48.61-39.28S508.59,531.67,545.67,551.32Z" transform="translate(-104.77 -160.49)"/><path class="cls-4" d="M554.63,614c22.33,4.09,28,10.56,26.82,17.06s-8.79,10.53-31.12,6.44c-40.68-7.44-58.19-22.79-58.19-22.79S513.36,606.43,554.63,614Z" transform="translate(-104.77 -160.49)"/><path class="cls-4" d="M627.43,570.84c7.73,15,5.27,21.86-.59,24.89s-12.91,1-20.63-13.93C592.13,554.56,596,535.91,596,535.91S613.16,543.2,627.43,570.84Z" transform="translate(-104.77 -160.49)"/><path class="cls-4" d="M641.12,433.25c10.52,20.11,8.91,28.58,3.06,31.63s-13.72-.44-24.24-20.56c-19.16-36.64-17.84-59.89-17.84-59.89S621.67,396.07,641.12,433.25Z" transform="translate(-104.77 -160.49)"/><path class="cls-4" d="M903.9,1115.9s-324.32-534.49-466-441,296.68,310,386.16,468.59Z" transform="translate(-104.77 -160.49)"/><path class="cls-10" d="M711.73,1059.85S338.46,663.9,210.37,776.62s322.3,205.85,426.48,324.8Z" transform="translate(-104.77 -160.49)"/><path class="cls-8" d="M670.05,1083.47C599.59,1000,494.94,934.26,419.56,893.8,337.83,849.93,272,825.53,271.33,825.29l1.51-4.09c.66.24,66.79,24.74,148.78,68.75,75.72,40.65,180.86,106.72,251.76,190.71Z" transform="translate(-104.77 -160.49)"/><path class="cls-5" d="M320.55,1174.28c84,16.33,72.79,143.21,167.6,117.71s86.77-31.48,133.49,8.94c0,0,18.69,39.64,56.73,45.49,150.1,23.07,349.9-202.41,191.3-321-11.45-8.56-27.92-11.61-46.13-14.07C724.72,998.09,695,1044,615,929.52s-181.85,54.22-248,49.76-124.8-23-174.78,48S236.54,1158,320.55,1174.28Z" transform="translate(-104.77 -160.49)"/><path class="cls-6" d="M825.43,1187.35l3-4.74c-2.08-1.34-213.85-134.24-647.75-135.17l0,5.63C613,1054,823.36,1186,825.43,1187.35Z" transform="translate(-104.77 -160.49)"/><path class="cls-6" d="M552,1025.6c56.12-52.7,65.32-93.78,65.68-95.51l-5.51-1.16c-.08.4-9.34,41.21-64,92.56Z" transform="translate(-104.77 -160.49)"/><path class="cls-6" d="M543.43,1086.52c15.46-28.66,13.08-69.45-6.91-117.94a375.57,375.57,0,0,0-34.94-64.91L497,906.91c.78,1.1,77.07,111,41.5,176.94Z" transform="translate(-104.77 -160.49)"/><path class="cls-6" d="M429.08,1079.16c6.69-5.84,10.29-9.62,10.45-9.8l-4.11-3.85c-.75.81-76.67,80.36-191.24,79.34l-.05,5.62C336.45,1151.3,404.17,1100.93,429.08,1079.16Z" transform="translate(-104.77 -160.49)"/><path class="cls-6" d="M375.6,1210.49c25.51-29.71,32.35-59,33.59-78.34,1.35-21.05-3.33-34.92-3.53-35.51l-5.33,1.84c.19.53,17.71,54-29,108.34Z" transform="translate(-104.77 -160.49)"/><path class="cls-11" d="M523.85,827.06l665.58,26.12a54.88,54.88,0,0,1,50.9,40.77l126,474.82L597.21,1380,468.66,896.05A54.89,54.89,0,0,1,523.85,827.06Z" transform="translate(-104.77 -160.49)"/><path class="cls-11" d="M1626,1401.76H619.06c-7.34,0-16.22-2-17.83-6.77-1.24-3.66-2.87-11.33-4.08-15-2.27-6.94,5.63-13.3,16.31-13.26l466.53-1.3,550.76,5.14c10.82,0,18.54,6.84,15.43,13.58l-4.66,10.1C1639.46,1398.7,1633.15,1401.76,1626,1401.76Z" transform="translate(-104.77 -160.49)"/><path class="cls-12" d="M1635.49,1401.76H1086.32c-4,0-8.85-2-9.73-6.77-.67-3.66-1.57-11.33-2.22-15-1.24-6.94-.21-14.6,5.62-14.56l558.09,5.14c5.9,0,10.11,6.84,8.41,13.58l-2.54,10.1C1642.83,1398.7,1639.39,1401.76,1635.49,1401.76Z" transform="translate(-104.77 -160.49)"/><path class="cls-2" d="M1345.3,1364.62l-167.49.5-188.27.58-16.48,0-187.45.57-57.67.17-95.79.29-8.91-36.24L515.32,891.38a20.29,20.29,0,0,1,20.39-25.12L766,874l46,1.55h0l12.89.44,61,2.06,7.59.26,32.05,1.08,191.92,6.48,52.88,1.79a51.61,51.61,0,0,1,24.36,7c1,.57,2,1.18,2.91,1.82a51.77,51.77,0,0,1,20.79,28.59l32.36,112.13Z" transform="translate(-104.77 -160.49)"/><path class="cls-13" d="M882.59,858.93c1.7,5.15-3.44,7.32-5.9,7.32s-7.34-3.28-7.34-7.32c0-6,4.88-7.31,7.34-7.31S881.32,855.1,882.59,858.93Z" transform="translate(-104.77 -160.49)"/><path class="cls-12" d="M2223,1417.09l-49.45.07-331.75-24.24c-18.57-1.18-33.13-16.77-33.43-35.79l-9.9-621.93c-.31-19.64,14.65-36,33.83-37l333-20,50.69,0c20.21-1.05,37.22,15.3,37.45,36l7.42,666.07C2261.1,1401.47,2243.7,1418.4,2223,1417.09Z" transform="translate(-104.77 -160.49)"/><path class="cls-11" d="M2168.19,1417.09,1787,1392.92c-18.57-1.18-33.13-16.77-33.43-35.79l-9.9-621.93c-.31-19.64,14.65-36,33.83-37l383.67-20c20.21-1.05,37.22,15.3,37.45,36l7.42,666.07C2206.26,1401.47,2188.86,1418.4,2168.19,1417.09Z" transform="translate(-104.77 -160.49)"/><path class="cls-2" d="M2175.28,1334.86c.07,5.14-391.64-18.22-391.71-22.85l-.15-9.12h0l-.16-10.28-1.57-95.43v-.81l0-2.68L1779,1028.89v-.16l0-2.79h0l-1.64-100.55-2.93-179.19a8.87,8.87,0,0,1,8.43-9l216.26-11h0l21.31-1.08,1.73-.1,39.35-2,7.11-.36,25.81-1.31,64.65-3.28a8.89,8.89,0,0,1,9.35,8.75l.38,32.64.18,15.87.17,15.71.83,72.68,1.25,108.91,2.11,184.52h0l1,88.28h0l.1,9.48.18,15.86.21,18.44.38,32.83Z" transform="translate(-104.77 -160.49)"/><path class="cls-12" d="M1983.13,1361.88c2.79,21.44-11.6,32.73-30.3,30.76-13.4-1.42-29.37-11.29-26.28-28.22,2.22-12.15,13.81-19.16,27.21-20.6C1974.78,1341.56,1981.54,1349.65,1983.13,1361.88Z" transform="translate(-104.77 -160.49)"/><path class="cls-14" d="M1418.86,489.89c0-65.22,31-134.71,131.16-134.71,65.22,0,121.06,55.64,127.62,120.53,8,78.87-39.88,126.73-134.16,136.48C1478.61,618.9,1418.86,571.42,1418.86,489.89Z" transform="translate(-104.77 -160.49)"/><path class="cls-15" d="M1533.78,597.1a95.8,95.8,0,0,1-64.87-24.68c-22-19.87-34.18-49.5-34.18-83.42,0-22.49,4.27-54.67,24.6-80.28,19.94-25.09,50.38-37.82,90.49-37.82,55.9,0,106.17,47.41,112.06,105.69,7,68.81-34.68,111.41-117.25,120A104.74,104.74,0,0,1,1533.78,597.1Zm16-219.11c-32.47,0-108,10.82-108,111,0,31.89,11.31,59.64,31.84,78.16,19,17.12,43.92,25.05,70.24,22.33,39.15-4,68.59-15.81,87.49-35s26.69-45,23.44-77.24C1649.29,422.54,1602.18,378,1549.82,378Z" transform="translate(-104.77 -160.49)"/><path class="cls-15" d="M1549.29,557.31,1548,549.2a5.81,5.81,0,0,0-6-4.91,56.14,56.14,0,0,1-19.68-2.53,5.79,5.79,0,0,1-3.83-6.55l.37-2a5.8,5.8,0,0,1,7.43-4.48,49.08,49.08,0,0,0,21.72,1.69c13.13-2,17.76-11.75,16.1-22.59-1.61-10.47-6.76-15.25-21.32-18.85-20-4.72-40-10.62-42.57-27.16-2.21-14.43,4.43-30.36,26.11-34.38,2.59-.48,3.82-3.59,3.42-6.19l-1.36-8.89a5.8,5.8,0,0,1,4.85-6.61h0a5.8,5.8,0,0,1,6.61,4.86l1.14,7.4a5.79,5.79,0,0,0,5.9,4.92,48.69,48.69,0,0,1,14.85,1.61,5.8,5.8,0,0,1,4.11,6.74l-.38,1.88a5.79,5.79,0,0,1-7.2,4.4,44.32,44.32,0,0,0-18.4-.9c-14.23,2.19-18.25,11.76-17.09,19.37,1.52,9.89,11.63,9.31,28.77,13.69,20.27,5.07,34,14.48,38.18,31.09,4.43,17.73-4.21,31.91-26.82,39-2.51.79-3.82,3.59-3.42,6.2l1.45,9.45a5.8,5.8,0,0,1-4.86,6.61l-.18,0A5.78,5.78,0,0,1,1549.29,557.31Z" transform="translate(-104.77 -160.49)"/><path class="cls-14" d="M1549.14,719c14.89-38.08,48.87-71.56,107.34-48.69,38.07,14.9,58,60.14,47,99.52-13.36,47.87-52.23,64.88-109.49,49C1554.55,808,1530.51,766.62,1549.14,719Z" transform="translate(-104.77 -160.49)"/><path class="cls-15" d="M1631.45,815a125.55,125.55,0,0,1-33.25-5c-17.21-4.76-31-15.9-38.7-31.38-8.32-16.63-8.64-36.7-.9-56.5h0c5.14-13.13,15-31,32.71-41.25,17.36-10.1,38-10.57,61.46-1.41,32.63,12.76,51.15,51.92,41.28,87.29C1685.19,798.5,1663.41,815,1631.45,815Zm-68.71-91.24c-7.28,18.61-7,37.4.74,52.9,7.17,14.33,19.92,24.65,35.9,29.07,23.79,6.59,43.66,6.44,59.07-.42s25.86-20.19,31.32-39.73c9.27-33.24-8-70-38.62-82-19-7.42-65.52-18.36-88.41,40.14Z" transform="translate(-104.77 -160.49)"/><path class="cls-15" d="M1609.88,788.17l1.13-5a3.64,3.64,0,0,0-2.41-4.24,35.17,35.17,0,0,1-10.91-6,3.61,3.61,0,0,1-.74-4.69l.66-1.06a3.64,3.64,0,0,1,5.36-.92,30.74,30.74,0,0,0,12.29,6c8.13,1.82,13.06-2.8,14.56-9.51,1.46-6.48-.46-10.45-8.14-15.88-10.61-7.32-20.94-15.34-18.64-25.58,2-8.92,9.52-16.7,23.09-14.1,1.62.31,3-1.23,3.41-2.84l1.23-5.49a3.64,3.64,0,0,1,4.35-2.75h0a3.63,3.63,0,0,1,2.75,4.34l-1,4.58a3.63,3.63,0,0,0,2.32,4.22,30.72,30.72,0,0,1,8.31,4.34,3.62,3.62,0,0,1,.85,4.87l-.65,1a3.63,3.63,0,0,1-5.21.92,27.81,27.81,0,0,0-10.53-4.72c-8.81-2-13.34,2.69-14.4,7.4-1.37,6.12,4.66,8.09,13.67,14.56,10.67,7.59,16.56,16.23,15.19,26.87-1.47,11.36-9.75,17.67-24.57,16.65a3.47,3.47,0,0,0-3.42,2.84l-1.31,5.85a3.63,3.63,0,0,1-4.34,2.75l-.12,0A3.63,3.63,0,0,1,1609.88,788.17Z" transform="translate(-104.77 -160.49)"/><polygon class="cls-16" points="1394.36 1322.01 1394.36 1305.13 1641.35 1303.6 1641 1322.01 1394.36 1322.01"/><path class="cls-16" d="M1508.81,1465.14c22.47-18.7,73.74-35.15,162-23.91,57.45,7.31,87.46,29.53,70.88,48.88-20.16,23.51-78.8,31.86-165.21,24.08C1517,1508.84,1480.71,1488.52,1508.81,1465.14Z" transform="translate(-104.77 -160.49)"/><path class="cls-14" d="M1508.81,1448.88c22.47-18.7,73.74-35.15,162-23.91,57.45,7.31,87.46,29.53,70.88,48.88-20.16,23.51-78.8,31.86-165.21,24.08C1517,1492.58,1480.71,1472.26,1508.81,1448.88Z" transform="translate(-104.77 -160.49)"/><path class="cls-15" d="M1633,1496.84c-15,0-31.52-.8-49.42-2.41-37.26-3.36-62.89-13.45-66.91-26.35-1.33-4.27-1-11,8.34-18.74h0c12.06-10,49.77-32.16,139.2-20.77,34.79,4.43,59.63,15.55,64.81,29,2.06,5.34.91,10.77-3.33,15.71-8.82,10.29-25.74,17.31-50.29,20.87A298,298,0,0,1,1633,1496.84Zm-15.3-67.59a233.09,233.09,0,0,0-43.21,3.72c-25.49,4.83-39.65,13.16-47,19.31h0c-6.17,5.13-8.57,10.06-7.14,14.66,3.5,11.22,28.46,20.51,63.6,23.68,73,6.57,122.28-.47,138.87-19.83,3.31-3.86,4.2-7.84,2.66-11.84-4.6-12-28.83-22.39-61.72-26.58A365.16,365.16,0,0,0,1617.68,1429.25Z" transform="translate(-104.77 -160.49)"/><path class="cls-15" d="M1600.46,1482.85l1.7-2.47c.62-.9-1-1.79-3.64-2.09a114.41,114.41,0,0,1-16.46-2.93c-2.08-.57-2.55-1.55-1.11-2.3l1-.52c1.74-.91,5.52-1.12,8.09-.45a106.72,106.72,0,0,0,18.55,2.92c12.26.89,19.7-1.38,22-4.68s-.7-5.12-12.28-7.79c-16-3.6-31.6-7.54-28.14-12.57,3-4.38,14.37-8.2,34.85-6.93,2.44.16,4.6-.6,5.14-1.39l1.86-2.7c.67-1,3.6-1.56,6.56-1.35h0c3,.22,4.81,1.17,4.15,2.14l-1.55,2.25c-.61.88.89,1.77,3.5,2.07a102.37,102.37,0,0,1,12.53,2.13c2.3.56,2.85,1.61,1.29,2.39l-1,.5c-1.72.86-5.31,1.06-7.86.45a97.82,97.82,0,0,0-15.89-2.32c-13.3-1-20.14,1.32-21.73,3.64-2.07,3,7,4,20.62,7.15,16.11,3.73,25,8,22.92,13.2-2.21,5.58-14.71,8.67-37.07,8.18-2.49-.06-4.61.6-5.15,1.39l-2,2.87c-.67,1-3.6,1.57-6.56,1.35h-.17C1601.66,1484.76,1599.8,1483.81,1600.46,1482.85Z" transform="translate(-104.77 -160.49)"/><polygon class="cls-16" points="914.25 1309.56 914.25 1298.48 1076.26 1297.48 1076.03 1309.56 914.25 1309.56"/><path class="cls-16" d="M1025.37,1458.66c14.74-12.27,48.37-23.05,106.23-15.68,37.68,4.8,57.36,19.37,46.49,32.06-13.22,15.42-51.69,20.9-108.37,15.8C1030.73,1487.32,1006.93,1474,1025.37,1458.66Z" transform="translate(-104.77 -160.49)"/><path class="cls-14" d="M1025.37,1448c14.74-12.27,48.37-23.06,106.23-15.69,37.68,4.8,57.36,19.37,46.49,32.06-13.22,15.42-51.69,20.9-108.37,15.8C1030.73,1476.66,1006.93,1463.33,1025.37,1448Z" transform="translate(-104.77 -160.49)"/><path class="cls-15" d="M1106.46,1479.43c-9.75,0-20.46-.51-32.06-1.56-24.44-2.2-41.25-8.82-43.89-17.28-.87-2.8-.63-7.21,5.47-12.3,7.91-6.58,32.65-21.08,91.31-13.61,22.82,2.9,39.11,10.19,42.51,19,1.35,3.5.59,7.06-2.18,10.3C1158.91,1474.15,1137.63,1479.43,1106.46,1479.43Zm-69.68-30.17.81,1c-4,3.37-5.63,6.61-4.68,9.62,2.29,7.36,18.66,13.46,41.71,15.53,47.86,4.31,80.21-.31,91.09-13,2.17-2.53,2.76-5.15,1.75-7.77-3-7.84-18.92-14.69-40.49-17.43-22.39-2.86-42.08-2.72-58.53.39-16.73,3.17-26,8.63-30.85,12.66Z" transform="translate(-104.77 -160.49)"/><path class="cls-15" d="M1085.48,1470.28l1.12-1.62c.4-.59-.64-1.17-2.39-1.37a76.1,76.1,0,0,1-10.79-1.92c-1.37-.38-1.68-1-.73-1.52l.65-.34a9,9,0,0,1,5.3-.29,69.88,69.88,0,0,0,12.17,1.91c8,.59,12.92-.9,14.41-3.06s-.46-3.37-8.06-5.12c-10.5-2.36-20.72-4.94-18.45-8.24,2-2.87,9.42-5.38,22.86-4.54a4.42,4.42,0,0,0,3.37-.91l1.22-1.78c.44-.63,2.36-1,4.3-.88h0c1.94.14,3.16.77,2.72,1.4l-1,1.47c-.39.58.59,1.17,2.3,1.36a66.66,66.66,0,0,1,8.22,1.4c1.51.37,1.87,1,.85,1.57l-.65.33a9.1,9.1,0,0,1-5.15.29,64.51,64.51,0,0,0-10.43-1.52c-8.71-.64-13.2.87-14.25,2.39-1.36,2,4.62,2.6,13.53,4.69,10.56,2.44,16.39,5.22,15,8.65-1.45,3.66-9.64,5.7-24.31,5.37-1.63,0-3,.39-3.38.91l-1.3,1.89c-.44.63-2.36,1-4.3.88h-.11C1086.27,1471.53,1085.05,1470.91,1085.48,1470.28Z" transform="translate(-104.77 -160.49)"/><path class="cls-14" d="M1472.53,897c-2-22.83,6.63-48.13,41.69-51.28,22.84-2.05,44.13,15.68,48.47,38.19,5.27,27.37-10,45.62-42.68,52C1497.5,940.28,1475.09,925.54,1472.53,897Z" transform="translate(-104.77 -160.49)"/><path class="cls-15" d="M1512.94,931.07a33.51,33.51,0,0,1-20.29-6.75c-8.34-6.27-13.52-16.26-14.59-28.13h0c-.7-7.88-.22-19.28,6.1-28.88,6.19-9.42,16.44-14.83,30.49-16.09,19.56-1.75,38.65,13.27,42.55,33.49,4.59,23.87-8.65,40.09-37.29,45.67A36.11,36.11,0,0,1,1512.94,931.07ZM1480.54,896c1,11.17,5.84,20.53,13.6,26.37a31.56,31.56,0,0,0,25.3,5.61c27.45-5.36,39.67-20.14,35.31-42.76-3.66-19-21.55-33.13-39.88-31.47-11.37,1-37.47,7.17-34.33,42.25Z" transform="translate(-104.77 -160.49)"/><path class="cls-15" d="M1520.31,916.5l-.69-2.8a2,2,0,0,0-2.27-1.53,19.77,19.77,0,0,1-7-.26,2,2,0,0,1-1.54-2.18l.06-.69a2,2,0,0,1,2.47-1.8,17.37,17.37,0,0,0,7.65-.09c4.54-1.12,5.85-4.68,4.93-8.42s-2.84-5.12-8.06-5.93c-7.16-1-14.34-2.46-15.75-8.17-1.23-5,.6-10.77,8.06-12.86a1.84,1.84,0,0,0,1-2.27l-.75-3.07a2,2,0,0,1,1.49-2.47h0a2,2,0,0,1,2.47,1.5L1513,868a2,2,0,0,0,2.21,1.54,17,17,0,0,1,5.26.1,2,2,0,0,1,1.65,2.23l-.08.67a2,2,0,0,1-2.38,1.76,15.53,15.53,0,0,0-6.47.27c-4.92,1.21-6,4.69-5.37,7.31.84,3.42,4.36,2.9,10.5,3.89,7.25,1.14,12.36,4,14.34,9.69,2.11,6.07-.47,11.3-8.16,14.5a1.94,1.94,0,0,0-1,2.28l.81,3.26a2,2,0,0,1-1.5,2.47h-.06A2,2,0,0,1,1520.31,916.5Z" transform="translate(-104.77 -160.49)"/><path class="cls-15" d="M1545.39,1090.45c-91.5-46.88-218.78-123.3-305.52-221.11-20.1-22.66-27.45-31.71-37.26-47.18-7.89-12.44-37.71-6.72-58.08,12.34-19.12,17.9-30.24,52.79-26.92,60.22,5.65,12.65,19.43,29.06,41.43,54.81,76.42,89.47,199.29,173.33,355,246.77Z" transform="translate(-104.77 -160.49)"/><path class="cls-9" d="M1206,1156.94s-.39,10.1-2.2,30-4.92,49.74-10.49,89.11c-.39,2.73-.78,5.57-1.17,8.55-.77,4.8-1.42,9.85-2.2,15a.45.45,0,0,0-.13.26l-.13.9c-2.85,19.43-6.35,40.94-10.62,64.38l-392.47,1.42,4.91-47.6,4.67-33.09,2.08-17,.65-5,11.27-94.17,210.22-26.42s-.52,12.56-2.85,37.17Z" transform="translate(-104.77 -160.49)"/><path class="cls-13" d="M782.45,1270.71c-.71,15.8,94.26,28.77,212.52,33.38s213.69-5.09,214.4-20.9-93.59-31.73-211.85-36.34S783.15,1254.9,782.45,1270.71Z" transform="translate(-104.77 -160.49)"/><path class="cls-14" d="M842.71,826.05s26.67-81.23,180.68-71.26c222.1,14.39,187.21,216.94,186,528.4,0,0-216.51-46.28-426.76-16.37C782.61,1266.82,785.62,949,842.71,826.05Z" transform="translate(-104.77 -160.49)"/><path class="cls-14" d="M786.71,810.2l96.65,62.7s218.76,35.46,277.88,29.93,78.17-47.31,78.17-47.31-57.73-68.78-162.32-93.41c-9.83-2.33-20-4.25-30.69-5.69a305.17,305.17,0,0,0-53.56-2.7C857.68,759.42,786.71,810.2,786.71,810.2Z" transform="translate(-104.77 -160.49)"/><path class="cls-15" d="M1003.56,734.38l14.25-36.69L1022,687l24.4-62.8-1.87,64-1.13,38.45-.35,12.16c-.24,8.26,4.65,10.35,10.26,17.93,2.27,3.08,16.88,21.78-1.66,28.46-23.09,8.32-63.91-9.61-78.45-30.35C973.29,754.88,999,746.24,1003.56,734.38Z" transform="translate(-104.77 -160.49)"/><path class="cls-9" d="M1189.89,1294.65s-125.21-46.6-393.63-13.56l-4.72,38,387.2,41Z" transform="translate(-104.77 -160.49)"/><path class="cls-13" d="M1103.8,1276.72s-56.49-5.38-81.62,39.48c0,0,15.48-45.45-8.38-46.4-9.87-.4,10.29-5.66,10.29-5.66Z" transform="translate(-104.77 -160.49)"/><path class="cls-13" d="M784.38,812.46c-10.82,13.29,4.77,44.4,34.83,69.49s63.19,34.66,74,21.38-4.77-44.4-34.82-69.49S795.2,799.17,784.38,812.46Z" transform="translate(-104.77 -160.49)"/><path class="cls-15" d="M885.33,904.29c-1.13,1.62-2.21,3.19-3.26,4.73-10.21,15-17.07,27.59-31.81,56.7-23.68,46.75-43.8,98-60.85,150.31-28.12,86.21-47.89,175-61.47,250.46l-95.79.29-8.91-36.24c28.66-179.25,70.86-320.3,128.91-430.45,5.09-9.64,9.67-18.32,13.87-26.06,7.57-14,13.88-24.94,19.53-33.14a89.59,89.59,0,0,1,7.85-10c2.46-2.66,9.67-4.23,18.86-4.16a92.61,92.61,0,0,1,28,4.73,67.49,67.49,0,0,1,17.77,8.87A80.16,80.16,0,0,1,884,873c.73,1.7,1.38,3.4,1.93,5.08C889.44,888.52,889.59,898.22,885.33,904.29Z" transform="translate(-104.77 -160.49)"/><path class="cls-12" d="M1099.23,603.69a84.47,84.47,0,0,1-2.46,35c-5.42,19.2-21.87-30.09-21.87-30.09Z" transform="translate(-104.77 -160.49)"/><path class="cls-15" d="M1098.74,644.5c-2.3-38-29.73-67.29-61.26-65.38s-55.23,34.27-52.93,72.29,29.73,67.3,61.26,65.39S1101,682.52,1098.74,644.5Z" transform="translate(-104.77 -160.49)"/><path class="cls-13" d="M984.51,631.62l27.82-.93a20.15,20.15,0,0,0,15.55-8c6.28-8.46,13.41-12.53,39.1-9.75,32.54,3.51,55.44-14.42,60.17-31.24,4.82-17.17-11.05-30.15-28-23s-8.5-12.72-24.1-16c-29.16-6.1-36.27,16.2-60.33,13.77-31.54-3.19-89.84,16.86-66.9,74.38Z" transform="translate(-104.77 -160.49)"/><path class="cls-17" d="M1044.85,645.29a1.19,1.19,0,0,0,.6-.85,1.17,1.17,0,0,0-1-1.32c-.37-.06-8.88-2.21-13.87,6.65a1.17,1.17,0,0,0,.42,1.59,1.27,1.27,0,0,0,1.58-.41c4.38-4.69,11.2-5.58,11.52-5.54A1.19,1.19,0,0,0,1044.85,645.29Z" transform="translate(-104.77 -160.49)"/><path class="cls-17" d="M1038.79,659.77c.54,2.71,2.57,4.6,4.54,4.2s3.13-2.9,2.59-5.62-2.57-4.59-4.54-4.2S1038.25,657.06,1038.79,659.77Z" transform="translate(-104.77 -160.49)"/><path class="cls-17" d="M1087.88,644.86a.85.85,0,0,0,.66-.53,1.39,1.39,0,0,0-.34-1.6c-.25-.2-5.84-5.58-11.88.51a1.39,1.39,0,0,0-.14,1.62.86.86,0,0,0,1.27.26c4.46-2.53,9.65-.6,9.87-.44A.76.76,0,0,0,1087.88,644.86Z" transform="translate(-104.77 -160.49)"/><path class="cls-17" d="M1076.5,656c-.54,2.71.63,5.23,2.6,5.62s4-1.5,4.53-4.21-.63-5.23-2.6-5.62S1077,653.26,1076.5,656Z" transform="translate(-104.77 -160.49)"/><path class="cls-12" d="M947.8,630.87s16.18,42.5,43,47.42c0,0-19.66-32.9,27.78-48.78C1018.59,629.51,976.73,619.88,947.8,630.87Z" transform="translate(-104.77 -160.49)"/><path class="cls-15" d="M984.33,656.26c5.53,4.09,13,3.4,16.62-1.54s2.13-12.25-3.39-16.34-13-3.39-16.62,1.54S978.81,652.18,984.33,656.26Z" transform="translate(-104.77 -160.49)"/><path class="cls-12" d="M1018.59,629.51s-6.12,34.28.45,41.3,52.79,13.09,75,6.24h0c-1.2,22.21-18.21,40.7-40.34,42.83a65.73,65.73,0,0,1-22.16-1.63h0c-15-3.71-29.28-11-34.54-25.53-1.61-4.41,5.78-30.36,5.78-30.36s3.16-15.31-5.26-24C997.56,638.38,1008.59,629.78,1018.59,629.51Z" transform="translate(-104.77 -160.49)"/><path class="cls-18" d="M1081.77,688.71a117.5,117.5,0,0,1-37.42.32s1.58,18.19,21.5,16C1077.43,703.74,1081.77,688.71,1081.77,688.71Z" transform="translate(-104.77 -160.49)"/><path class="cls-13" d="M1096.29,555.78c-9-.36-9.28-8.07-9.28-8.15l1.56,0-.78,0,.78,0c0,.26.26,6.32,7.79,6.62Z" transform="translate(-104.77 -160.49)"/><path class="cls-18" d="M1076.87,604.45l-.17-.76c.36-.08,35.79-7.93,38.48-25.69.77-5,.16-8.44-1.86-10.44-3.23-3.2-9.6-2.18-15.21-1.28l-2.52.39-.11-.77,2.5-.39c5.8-.93,12.38-2,15.89,1.49,2.2,2.19,2.89,5.82,2.09,11.11-1.16,7.6-8.3,14.56-20.66,20.15A104.54,104.54,0,0,1,1076.87,604.45Z" transform="translate(-104.77 -160.49)"/><path class="cls-18" d="M1016,563.59a74.74,74.74,0,0,1-15.27-1.63l.16-.76c17.54,3.64,30.57.42,38.42-2.91a42.45,42.45,0,0,0,13-8.2l.57.54C1052.66,550.78,1040,563.59,1016,563.59Z" transform="translate(-104.77 -160.49)"/><path class="cls-19" d="M707.14,1129.18a12.8,12.8,0,0,1-3-.35c-9.59-2.28-14.79-15.12-11.57-28.63h0c3.21-13.51,13.63-22.63,23.23-20.35s14.79,15.13,11.58,28.63C724.5,1120.59,715.82,1129.18,707.14,1129.18Zm-10-27.89c-2.56,10.79,1.14,21.29,8.08,22.94s15-6.06,17.54-16.84-1.13-21.29-8.08-22.94-15,6.06-17.54,16.84Z" transform="translate(-104.77 -160.49)"/><path class="cls-15" d="M1665.43,1125.38a38.39,38.39,0,0,0-8-5.92c23.58-7.33,22.84-18.62-16.06-25.26-19.07-3.25-52.46-15.32-77.11-13.67a193.06,193.06,0,0,0-29.86,4.26c-9.35-1.11-68.43,87.43-66.94,88.73,54.74,39.6,145.73,63.29,160.91,57.73s6.47-18.65,18.38-24.68c12.68-6.41,3-20.5,11.93-26.46s6.9-15.43,4.66-25.91S1677,1137.08,1665.43,1125.38Z" transform="translate(-104.77 -160.49)"/><path class="cls-20" d="M1920.68,864.81c-1.79,3.91-3.36,7.5-4.84,11.14-4.45,10.94-8,22.22-14.32,43.4a226,226,0,0,0-7.81,41.36c-.07.66-.13,1.32-.2,2l-.12,1.38c-5,55.39,4.31,119,8.34,176.44q.52,7.24.89,14.34c.05.83.09,1.67.13,2.5,0,.09,0,.18,0,.27,1.39,28.09,1,54.29-3.76,76.75-.9,4.28-2,8.41-3.19,12.41a109.66,109.66,0,0,1-4,10.94c-3,7.09-22.19,31.57-29.35,36.28-.1.06-.51,15.92-4.73,17-.06,0-14.29,12.81-16.4,12.78-41.47-.54-56,0-57.82-11.75,0,0-17.54-78.91-20-111.2,0-.1,0-.21,0-.31-.07-.89-.13-1.77-.19-2.64-.09-1-.16-2-.23-3.06-1.93-26.42-3.06-52.18-3.36-77.12-.37-27.71.27-54.4,1.92-79.91a.57.57,0,0,1,0-.14c.06-.94.11-1.89.19-2.83,2.67-39.61,7.79-76.33,15.4-109.42,9.41-41,22.6-76.35,39.68-104.84l0,0a3.85,3.85,0,0,1,1.09-1.08h0c7-4.95,38.71-9.27,60.05-5.36a46,46,0,0,1,11.21,3.36C1910.84,827.58,1926.5,852.18,1920.68,864.81Z" transform="translate(-104.77 -160.49)"/><path class="cls-9" d="M2048.57,1336.56l-15.24-.94-87.55-5.41h-.09l-58.16-3.59-27.19-1.68-18.95-1.18h-.1q-.76-7-1.45-13.69-.31-3-.62-6-.73-7.43-1.42-14.54c-.42-4.44-.83-8.79-1.2-13q-.4-4.44-.77-8.74l0-.21v-.13l0-.23c0-.1,0-.18,0-.28h0q-.66-7.59-1.22-14.8c-.23-2.86-.45-5.69-.66-8.46-1.74-23.2-2.86-43-3.58-59.35,0-.39,0-.78,0-1.17,0-.91-.07-1.81-.11-2.71-1.46-35.69-.92-53.82-.92-53.82l72.5,14,24.15,4.66,1.49.3,1.26.24,1.79.34,76.33,14.74,12.81,2.47,19.93,3.85,3.53,65.76.61,11.44.62,11.72,1.86,34.81,1.92,35.75Z" transform="translate(-104.77 -160.49)"/><path class="cls-9" d="M2175.14,1322.1l-.38-32.83-.21-18.44-.18-15.86-.1-9.48h0l-1-88.28h0l-142.76-15.56-25.55-2.79s.39,7.38,1.8,22c.49,5,1.09,10.87,1.86,17.56,1.6,14.16,3.86,32.09,7,53.71.54,3.77,1.13,7.65,1.74,11.64.55,3.57,1.11,7.23,1.71,11q2.63,16.62,5.91,35.56,3,17.49,6.72,36.94c.52,2.78,1.06,5.6,1.6,8.45l15.24.94,117.27,7.24a8.87,8.87,0,0,0,9.44-8.94Z" transform="translate(-104.77 -160.49)"/><path class="cls-13" d="M2174.37,1255l.18,15.86.21,18.44c-34.79,2.27-79.46,2.8-128.65,1.57-4.73-.11-9.51-.25-14.33-.39l-6.77-.22q-12.09-.45-23.79-1l-4.7-.25h0c-44.91-2.43-85-6.63-115.8-11.8-18.45-3.1-33.58-6.54-44.47-10.16h0a4.11,4.11,0,0,1-.46-.15h0c-11-3.67-17.51-7.52-18.64-11.36a4.21,4.21,0,0,1-.18-1.3c0-.1,0-.21,0-.31a4.87,4.87,0,0,1,1.07-2.49c2.19-2.86,7.64-5.47,15.85-7.8,14.25-4,36.8-7.17,65.13-9.2,32.54-2.34,72.69-3.22,116.64-2.31,5.8.13,11.67.27,17.61.46,3.27.11,6.53.22,9.76.35C2093.23,1234.8,2174.37,1255,2174.37,1255Z" transform="translate(-104.77 -160.49)"/><path class="cls-20" d="M2174.27,1245.49h0l-1-88.28h0l-2.11-184.52-1.25-108.91-.83-72.68-.17-15.71A220.42,220.42,0,0,0,2109.48,745h0q-8.94-2.94-18.47-5.16a221.77,221.77,0,0,0-49-5.63q-9.58,0-18.56.39-6.67.33-13,.94h0A239.56,239.56,0,0,0,1983,739.7h0c-49.39,10.53-82.34,36-104.82,74.34-8.4,14.27-15.32,30.34-21.09,48.08-9.77,30-16.27,64.71-21,103.73a0,0,0,0,0,0,0l-.42,3.47h0q-1.55,13.25-2.85,27.13h0c-.08.87-.17,1.74-.25,2.62,0,.2,0,.4,0,.61-5,54.38-7.68,115.88-11.33,183.32-.06.92-.11,1.85-.15,2.77,0,.41,0,.82-.07,1.24q-1.53,28-3.38,57.4v0c-.2,3.12-.4,6.23-.61,9.37,0,.1,0,.21,0,.31l1.3-.18c2.37-.31,8-1,16.3-2,13.65-1.5,34.71-3.54,61.28-5.25,33.18-2.13,74.94-3.73,121.57-3.08q12.88.19,26.24.61A1270.17,1270.17,0,0,1,2174.37,1255Z" transform="translate(-104.77 -160.49)"/><path class="cls-20" d="M2169.9,863.76c-17.94,1.56-81,6.91-143.91,10.15a4.44,4.44,0,0,0-.63,0l-5.16.25c-1.39.07-2.79.13-4.18.21-14.3.68-28.45,1.23-41.94,1.59h0c-21.94.61-42.11.68-58.23,0a206.37,206.37,0,0,1-23.38-2.13,113.93,113.93,0,0,1-35.42-11.7c-30.67-16.34-40.1-41.58-40.1-41.58l0,0,1.09-1.08h0c8.9-8.68,69.08-64.35,166.14-81.08,1-.18,2.07-.36,3.11-.52q11.57-1.89,23.78-3c2.5-.22,5-.41,7.59-.58,1.53-.1,3.06-.19,4.61-.24,6.54-.3,13.08-.34,19.59-.18h0c10.07.2,20.09.83,30,1.5q9.18.63,17.75,1.7h0c7.32.89,14.31,2,21,3.36a222.83,222.83,0,0,1,57,19.13l.18,15.87.17,15.71Z" transform="translate(-104.77 -160.49)"/><path class="cls-9" d="M2175.14,1322.1,2048,1326.59l-16.3.58-86,3h-.09l-58.16-3.59L1862,1325l-.56,0-1.06-.06-16.41-1a9.33,9.33,0,0,1,6.16-6c.25-.08-10.66-13.92-10.66-13.92l-1.44-14.5-1.28-13-.88-8.83,0-.21v-.13l0-.23.44-.13h0c3-.84,21.46-5.69,55.64-9.27,9.47-1,20.14-1.91,32-2.6h.06c24.89-1.46,55.09-2,90.7-.61h.55l3.89.15q12.17.52,25.15,1.36c38.1,2.44,81.51,7,130.3,14.8l.21,18.44Z" transform="translate(-104.77 -160.49)"/><path class="cls-13" d="M1923.91,1255.12s57.38-1.42,79.55,45.63c0,0-12.39-47,11.75-46.23,10,.3-10-6.44-10-6.44Z" transform="translate(-104.77 -160.49)"/><path class="cls-12" d="M1976.22,576.4a85.34,85.34,0,0,0,0,35.51c4.11,19.75,24.2-28.81,24.2-28.81Z" transform="translate(-104.77 -160.49)"/><path class="cls-15" d="M2092.71,737.89c-16.15,19.89-45.16,17.09-67.85,7.07-18.25-8.07-15.63-7.91-13.12-10.84,6.18-7.25,11.29-9,11.63-17.36l.44-10.94,0-1.36.58-14.27,1-24.6,2.64-64.74,20.19,65.08,3.42,11.07,11.79,38C2067.29,727.31,2092.58,737.86,2092.71,737.89Z" transform="translate(-104.77 -160.49)"/><path class="cls-13" d="M2054.86,687.21a47.84,47.84,0,0,1-31.05,18.61l0-1.36.58-14.27C2035.59,689.12,2054.86,687.21,2054.86,687.21Z" transform="translate(-104.77 -160.49)"/><path class="cls-15" d="M1973.83,617.61c5-38.2,34.76-65.8,66.43-61.64s53.3,38.5,48.28,76.7-34.76,65.79-66.44,61.63S1968.81,655.8,1973.83,617.61Z" transform="translate(-104.77 -160.49)"/><path class="cls-17" d="M2019.62,622.68a1.18,1.18,0,0,1-.16-2.22c.35-.14,8.19-4.31,15.22,3.18a1.17,1.17,0,0,1,0,1.66,1.28,1.28,0,0,1-1.66,0c-5.43-3.55-12.35-2.78-12.64-2.66A1.18,1.18,0,0,1,2019.62,622.68Z" transform="translate(-104.77 -160.49)"/><path class="cls-17" d="M1988.49,622.39a.86.86,0,0,1-.71-.49,1.43,1.43,0,0,1,.23-1.64c.24-.22,5.51-6,12-.31a1.39,1.39,0,0,1,.25,1.62.86.86,0,0,1-1.26.35c-4.68-2.23-9.79.07-10,.25A.78.78,0,0,1,1988.49,622.39Z" transform="translate(-104.77 -160.49)"/><path class="cls-18" d="M1994,654.38a118.71,118.71,0,0,0,37.74,3s-2.89,18.25-22.83,14.61C1997.35,669.85,1994,654.38,1994,654.38Z" transform="translate(-104.77 -160.49)"/><path class="cls-14" d="M2041.65,748.15s-27.42-8.48-34.71-1.89-1.93,36.7,10.7,39.38S2054.14,755.42,2041.65,748.15Z" transform="translate(-104.77 -160.49)"/><path class="cls-21" d="M2025.54,741.05s35.8-12.65,42.78-25.31,44,16.58,43.4,25.31-67.4,57.15-71.76,51S2016.8,749.34,2025.54,741.05Z" transform="translate(-104.77 -160.49)"/><path class="cls-21" d="M2025.54,741.05s-5.34-13.29-2.77-20.5c0,0,1.7-6.33-3.75-5.9s-35.12,21.16-37.74,27.49-3,36,6.55,38.17,32.73-29.68,35.45-32.84A8.72,8.72,0,0,0,2025.54,741.05Z" transform="translate(-104.77 -160.49)"/><path class="cls-14" d="M2010,774s-94.34,244.54-88,347c0,0,6.65,59.81,49,92.1,0,0,57.22-37.53,64.91-92.1,6.32-44.85-21.65-304.72-5.51-340.6Z" transform="translate(-104.77 -160.49)"/><path class="cls-13" d="M2017.85,786.29h-.22c-8.32-.14-12.85-16.41-13-17.1l1.27-.35c0,.16,4.45,16,11.79,16.14h.2c7.47,0,14.16-6.93,14.23-7l1,.9C2032.73,779.19,2025.87,786.29,2017.85,786.29Z" transform="translate(-104.77 -160.49)"/><path class="cls-13" d="M2055.76,582.27s-13.94,22-44.48,23.37c0,0-3.63-1.34,1.62-4.68s12.7-12.45,10.72-15.29-24.54,27.91-48.06,26.32c0,0-32.67-1.12-13.69-20.59,11.78-12.09,0-59.77,78.05-64.13,11.41-.64,36,.84,45.2,18.47,0,0,31-1,37.3,36.53,9.49,56.4-42.1,77.07-42.1,77.07s12.79-47.87-1.31-41.66c-18.11,8-27.7-2.31-19.85-12.7S2068.93,574,2055.76,582.27Z" transform="translate(-104.77 -160.49)"/><path class="cls-15" d="M2088.42,637.58c-5.87,3.73-13.33,2.51-16.66-2.74s-1.28-12.51,4.58-16.24,13.33-2.51,16.66,2.73S2094.28,633.85,2088.42,637.58Z" transform="translate(-104.77 -160.49)"/><path class="cls-13" d="M2109.66,548.21a1.3,1.3,0,0,1-.93-.39c-8.53-8.53-21.52-5.25-21.64-5.22a1.31,1.31,0,0,1-.67-2.53c.59-.16,14.58-3.68,24.16,5.9a1.29,1.29,0,0,1,0,1.85A1.26,1.26,0,0,1,2109.66,548.21Z" transform="translate(-104.77 -160.49)"/><path class="cls-13" d="M2082.38,535.45l-.18,0a1.31,1.31,0,0,1-1.12-1.47c0-.3.71-6.87-9.48-10.37a1.31,1.31,0,1,1,.85-2.47c12.34,4.23,11.28,12.83,11.23,13.2A1.33,1.33,0,0,1,2082.38,535.45Z" transform="translate(-104.77 -160.49)"/><path class="cls-13" d="M1836.73,969.91a1.17,1.17,0,0,1-.32,0,1.3,1.3,0,0,1-1-1.58c7.14-28.62,16-54.37,26.41-76.55a1.31,1.31,0,0,1,2.37,1.11c-10.31,22-19.14,47.62-26.24,76.07A1.31,1.31,0,0,1,1836.73,969.91Z" transform="translate(-104.77 -160.49)"/><path class="cls-13" d="M1816.94,1255.48a1.31,1.31,0,0,1-1.31-1.19c0-.14-1.19-14.18-2-37A1.3,1.3,0,0,1,1815,1216h0a1.32,1.32,0,0,1,1.31,1.27c.75,22.7,1.93,36.68,1.94,36.81a1.31,1.31,0,0,1-1.19,1.42Z" transform="translate(-104.77 -160.49)"/><path class="cls-17" d="M1990.77,635.74c.32,2.48,2,4.31,3.83,4.08s3-2.43,2.69-4.91-2-4.31-3.83-4.08S1990.45,633.25,1990.77,635.74Z" transform="translate(-104.77 -160.49)"/><path class="cls-17" d="M2020.55,636.6c.31,2.48,2,4.31,3.83,4.08s3-2.43,2.69-4.91-2-4.31-3.83-4.08S2020.23,634.12,2020.55,636.6Z" transform="translate(-104.77 -160.49)"/><path class="cls-20" d="M2171.15,972.67c-1.22,1.37-2.45,2.73-3.7,4.11-9.82,10.77-20.51,21.48-31.92,32.05,0,0,0,0,0,0-28.95,26.8-62.57,52.72-98.89,76.49-18,11.76-36.58,23-55.61,33.53a1,1,0,0,1-.17.1c-17.12,9.49-34.58,18.43-52.2,26.72l-1,.48q-12.37,5.8-24.84,11.16c-3.15,1.35-6.31,2.69-9.47,4l-.21.08c-21,8.7-42,16.35-62.77,22.8q-4.68,1.47-9.35,2.84-19.85,5.84-39.26,10.11c-6.09,1.34-12.15,2.56-18.14,3.64-3.36.61-6.71,1.19-10,1.71v0l-1-2.48-6-14.25-.46-1.07-.23-.52-7.35-17.43a.08.08,0,0,1,0,0l-13-30.66a.15.15,0,0,0,0-.07l-2.47-5.89h0l-19.45-46-.1-.25-.43-1-.55-1.28-5.42-12.84c2.21-1,4.48-1.93,6.78-3h0c17.1-7.55,36.7-17,57.88-27.9l.31-.16h0q8.33-4.29,17-8.88c17.19-9.11,35.2-19.05,53.6-29.61,20-11.49,40.56-23.72,61-36.43q14.27-8.87,28.4-18c13.07-8.48,26-17,38.59-25.56h0q14.9-10,29.1-19.94c12.43-8.62,24.41-17.09,35.75-25.22l.62-.45c55.29-39.71,95.53-71.66,101-77.92,6.13-7.08,23.39-8,42.13-4.5l.83,72.68Z" transform="translate(-104.77 -160.49)"/><path class="cls-13" d="M1753.51,1202.51c-18.81,7-45.79-17.73-60.25-55.3s-11-73.74,7.86-80.77,45.78,17.73,60.25,55.31S1772.32,1195.48,1753.51,1202.51Z" transform="translate(-104.77 -160.49)"/><path class="cls-15" d="M1739.46,1189.5c-14.49,5.42-35.27-13.65-46.41-42.6s-8.44-56.8,6-62.21,35.27,13.66,46.42,42.6S1754,1184.09,1739.46,1189.5Z" transform="translate(-104.77 -160.49)"/><path class="cls-15" d="M1744.4,1184.07l.25-.23-3.78-7.59c-2.69-11.77-8.26-30.14-18.91-45.65a16,16,0,0,0,7.21-7.35l2-4.26c3.81-8-10.38-29.38-18.35-33.2,0,0-39.55-11.27-66.82-25.37-55-28.47-79.85-3.11-45.61,16.28,2.26,1.28,20.92,11.82,32.71,18.36a4.41,4.41,0,0,1-.9,8.09C1591,1115.08,1458,1157.91,1470,1189.47c7.18,18.93,94.5-25.12,94.06-22.55s-77.19,28.23-56.65,47.73c13.81,13.11,85.32-15.87,84.27-13.25s-61.36,22.45-56.12,34.33c8.8,20,65.21-6.7,65.56-6.22s-38.65,22.75-27.47,31.84,149.11-32.07,171.89-76.15Z" transform="translate(-104.77 -160.49)"/><path class="cls-22" d="M1621.19,1089.44a1.06,1.06,0,0,1-.51-.14c-8.29-4.65-19.38-10.91-20.76-11.68-12.94-7.34-18.87-16.58-15.1-23.54,5.44-10,28.91-11.55,61.71,5.41,26.87,13.89,66.24,25.18,66.63,25.29a1.05,1.05,0,0,1-.58,2c-.39-.11-40-11.46-67-25.45-33.57-17.36-54.65-14.12-58.9-6.27-3.18,5.86,2.43,14,14.29,20.71,1.37.78,12.46,7,20.75,11.68a1.05,1.05,0,0,1-.52,2Z" transform="translate(-104.77 -160.49)"/><path class="cls-22" d="M1746.23,1184.4l-.19-.13a.71.71,0,0,0-.28-.09,1,1,0,0,0-1,.29,1.24,1.24,0,0,0-.18.25c-.49,1-1,1.91-1.63,2.85a61.2,61.2,0,0,1-10.34,12c-1,.91-2,1.79-3,2.67l-.86.73-.88.72a171.93,171.93,0,0,1-24.37,16.21c-.17.11-.35.2-.53.31l-.32.17-.93.52c-6.67,3.68-13.39,7-19.64,9.9q-4.59,2.13-9.43,4.21l-.69.29-1,.41-1,.42c-8.72,3.66-17.86,7.17-27,10.34l-.55.19-.47.16c-.33.13-.67.24-1,.35-8.17,2.8-16.27,5.31-24,7.44-.35.11-.71.2-1.06.3l-1,.28c-5.44,1.47-10.65,2.74-15.54,3.76-19.94,4.15-24.24,2.24-25.08,1.55a3.9,3.9,0,0,1-1.63-3.39c.39-7.79,19.78-20.56,26.14-24.76,3.16-2.07,3.23-2.1,3.33-2.67a1.13,1.13,0,0,0-.19-.82c-.45-.62-.52-.71-2.84.21l-1.55.63c-24.59,10-55.14,19-61.06,5.58a3,3,0,0,1,0-2.44c1.82-4.58,11.11-10.06,21.51-15.1,7.45-3.62,15.48-7,21.76-9.63,10.17-4.28,12.4-5.29,12.82-6.34a1.17,1.17,0,0,0-.22-1.22c-.76-.81-1.61-.62-13.17,3-8.65,2.75-21.38,6.78-33.8,9.7-16.18,3.83-31.84,5.77-37.33.57-2.54-2.4-3.54-4.91-3.05-7.66s2.19-5.28,4.81-8c10-10.15,32.58-20.15,44.77-25.53,9.27-4.09,10.24-4.62,10.42-5.64a1.25,1.25,0,0,0-.41-1.09c-.81-.63-1.34-.52-14.31,5-13.6,5.73-36.91,15.56-54.88,20h0a66.64,66.64,0,0,1-15,2.24,16.35,16.35,0,0,1-6.38-1,5.32,5.32,0,0,1-3.13-3c-1.19-3.15-1-7,2-11.76,7-11.18,29.52-27,85.57-48.42a1,1,0,1,0-.74-2c-48.61,18.6-77.59,35.08-86.58,49.2q-4.62,7.26-2.2,13.68a7.42,7.42,0,0,0,4.27,4.22c5.18,2.22,14.34,1.1,25-1.66,11.33-3,24.33-7.79,35.88-12.43-10.12,5.09-20.31,11.11-26.17,17.36-2.66,2.82-4.43,5.69-4.92,8.55-.6,3.44.63,6.65,3.67,9.53,6.52,6.18,24.44,3.68,42.37-.77,11.21-2.8,22.43-6.34,30.85-9l2-.63-2.86,1.2c-7.16,3-15.91,6.69-23.78,10.61-10.07,5-18.68,10.41-20.61,15.27a5.12,5.12,0,0,0,0,4.08c5,11.41,24.67,10.62,58.37-2.36-11,7.58-22,16.38-22.36,23.24a6,6,0,0,0,2.4,5.13c1.32,1.07,3.89,1.49,7.12,1.49,5.61,0,13.21-1.27,19.71-2.64,4.83-1,10.3-2.34,16.24-4l1.05-.3,1.06-.29c7.43-2.08,15.51-4.59,23.91-7.48l.94-.32a.19.19,0,0,1,.08,0l1-.36c8.78-3.06,17.85-6.52,26.83-10.3.33-.14.65-.29,1-.42l1-.41c.16-.08.32-.14.47-.2a332.36,332.36,0,0,0,30.41-14.8l.62-.36a177.57,177.57,0,0,0,24.08-15.9c.3-.24.61-.48.9-.73l.89-.73q2.27-1.9,4.31-3.82a57.94,57.94,0,0,0,11.84-14.85l0-.09A1.05,1.05,0,0,0,1746.23,1184.4Z" transform="translate(-104.77 -160.49)"/><path class="cls-13" d="M1752.19,1202.71a1.31,1.31,0,0,1-.22-2.6c.65-.11,65.93-11.54,149.16-44.66,48.87-19.44,94.28-42.45,135-68.38,50.83-32.39,94.39-69.47,129.47-110.19a1.3,1.3,0,1,1,2,1.7c-35.25,40.93-79,78.18-130.08,110.72-40.83,26-86.4,49.1-135.43,68.61-83.48,33.21-149,44.67-149.62,44.78A.9.9,0,0,1,1752.19,1202.71Z" transform="translate(-104.77 -160.49)"/><path class="cls-13" d="M1761.75,1037.63a1.3,1.3,0,0,1-.59-2.47c2.31-1.17,231.8-117.45,292.44-199.81a1.31,1.31,0,1,1,2.11,1.56c-31.91,43.33-110,95.58-169.9,131.77-64.83,39.18-122.89,68.52-123.47,68.81A1.25,1.25,0,0,1,1761.75,1037.63Z" transform="translate(-104.77 -160.49)"/><path class="cls-15" d="M1646.43,1253.33c-9.2-10.93-24.35-49.41-9.74-56.31s38.67,37.36,37.81,45.53S1652.25,1260.23,1646.43,1253.33Z" transform="translate(-104.77 -160.49)"/><path class="cls-15" d="M1619.37,1259.85c-7.82-9.28-20.69-42-8.27-47.85s32.86,31.76,32.13,38.69S1624.32,1265.72,1619.37,1259.85Z" transform="translate(-104.77 -160.49)"/><path class="cls-15" d="M1677,1245.72c-9.75-12.43-25.82-56.18-10.32-64s41,42.48,40.1,51.76S1683.16,1253.57,1677,1245.72Z" transform="translate(-104.77 -160.49)"/><path class="cls-15" d="M1702.54,1220.24c-9-11.42-23.73-51.63-9.49-58.83s37.69,39,36.85,47.57S1708.21,1227.46,1702.54,1220.24Z" transform="translate(-104.77 -160.49)"/><path class="cls-22" d="M1646.43,1254.37a1,1,0,0,1-.8-.37c-5.07-6-11.09-18.94-14-30.07-3.87-14.73-2.23-24.62,4.62-27.86,8.76-4.13,19.32,8.12,24.83,15.79a1,1,0,0,1-.23,1.46,1.05,1.05,0,0,1-1.47-.24c-8.74-12.14-16.84-17.65-22.23-15.11-7.87,3.71-5.57,17.52-3.49,25.42,3.25,12.39,9.42,24.32,13.58,29.26a1,1,0,0,1-.12,1.48A1.09,1.09,0,0,1,1646.43,1254.37Z" transform="translate(-104.77 -160.49)"/><path class="cls-22" d="M1619.38,1260.9a1.08,1.08,0,0,1-.81-.37c-6.25-7.43-15.92-29.79-13.23-42.1.79-3.6,2.58-6.08,5.31-7.37,4.6-2.18,10.49.62,17,8.09a1,1,0,1,1-1.57,1.38c-4.1-4.66-10-9.76-14.58-7.58-2.12,1-3.52,3-4.16,5.93-2.51,11.52,6.92,33.33,12.79,40.3a1.06,1.06,0,0,1-.13,1.48A1.08,1.08,0,0,1,1619.38,1260.9Z" transform="translate(-104.77 -160.49)"/><path class="cls-22" d="M1677,1246.76a1,1,0,0,1-.83-.4c-4.15-5.28-9-15.45-12.47-25.92-2.37-7.23-6-20.79-3.88-30.44,1-4.49,3.14-7.6,6.37-9.23,5.54-2.81,12.67.73,20.61,10.25a1.05,1.05,0,0,1-1.62,1.34c-5-6-12.26-12.65-18-9.72-2.65,1.34-4.42,4-5.27,7.82-3.43,15.45,8.46,45.07,16,54.61a1,1,0,0,1-.82,1.69Z" transform="translate(-104.77 -160.49)"/><path class="cls-22" d="M1702.54,1221.29a1.05,1.05,0,0,1-.82-.4,55.33,55.33,0,0,1-5.69-9.54,105.16,105.16,0,0,1-9.37-29c-1.7-11.5.35-19.07,5.92-21.89a8.85,8.85,0,0,1,7.37-.14c10.72,4.07,23,24.79,28.34,38.2,1.35,3.4,2.91,8,2.66,10.55a1,1,0,0,1-2.09-.2c.16-1.64-.76-5.13-2.52-9.58-5-12.68-17.12-33.21-27.13-37a6.77,6.77,0,0,0-5.69.06c-10.49,5.3-3.58,31.82,4.39,48.08a53.2,53.2,0,0,0,5.46,9.16,1,1,0,0,1-.83,1.7Z" transform="translate(-104.77 -160.49)"/><path class="cls-22" d="M1647.64,1131.19c-39.59,0-92.68-8.84-96-9.39a1,1,0,0,1,.35-2.07c1.19.2,119.24,19.86,135.07,1.69a6.44,6.44,0,0,0,1.17-6.64c-3.5-11.13-59-23.15-106.92-32.38-14.77-2.84-38.43,2.61-38.66,2.66a1,1,0,1,1-.48-2c1-.23,24.33-5.61,39.53-2.68,74,14.24,105.46,24,108.54,33.81a8.53,8.53,0,0,1-1.6,8.65C1683.2,1129.07,1667,1131.19,1647.64,1131.19Z" transform="translate(-104.77 -160.49)"/><polygon class="cls-16" points="1106.1 1291.79 1106.1 1273.89 1367.96 1272.27 1367.59 1291.79 1106.1 1291.79"/><path class="cls-16" d="M1221.13,1433.88c23.83-19.83,78.19-37.26,171.71-25.35,60.9,7.75,92.72,31.31,75.14,51.82-21.37,24.93-83.55,33.78-175.15,25.53C1229.8,1480.21,1191.34,1458.67,1221.13,1433.88Z" transform="translate(-104.77 -160.49)"/><path class="cls-14" d="M1221.13,1416.64c23.83-19.83,78.19-37.26,171.71-25.35,60.9,7.75,92.72,31.31,75.14,51.82-21.37,24.93-83.55,33.78-175.15,25.54C1229.8,1463,1191.34,1441.43,1221.13,1416.64Z" transform="translate(-104.77 -160.49)"/><path class="cls-15" d="M1352.78,1467.49q-23.88,0-52.4-2.56c-39.5-3.56-66.67-14.26-70.93-27.93-2.57-8.22,3.39-15.34,8.84-19.88h0c12.79-10.64,52.77-34.09,147.58-22,36.89,4.7,63.21,16.48,68.71,30.74,2.18,5.67,1,11.43-3.53,16.66-9.35,10.91-27.29,18.36-53.32,22.13A317.1,317.1,0,0,1,1352.78,1467.49Zm-111.9-47.25c-6.54,5.44-9.08,10.68-7.56,15.55,3.7,11.89,30.17,21.74,67.42,25.1,77.36,7,129.64-.5,147.23-21,3.51-4.09,4.46-8.32,2.82-12.56-4.88-12.67-30.57-23.73-65.44-28.18-36.18-4.6-68-4.39-94.6.64-27,5.12-42,14-49.87,20.47Z" transform="translate(-104.77 -160.49)"/><polygon class="cls-16" points="1106.1 1272.07 1106.1 1254.17 1367.96 1252.55 1367.59 1272.07 1106.1 1272.07"/><path class="cls-16" d="M1221.13,1414.16c23.83-19.83,78.19-37.27,171.71-25.36,60.9,7.76,92.72,31.32,75.14,51.83-21.37,24.92-83.55,33.78-175.15,25.53C1229.8,1460.48,1191.34,1438.94,1221.13,1414.16Z" transform="translate(-104.77 -160.49)"/><path class="cls-14" d="M1221.13,1396.92c23.83-19.83,78.19-37.27,171.71-25.35,60.9,7.75,92.72,31.31,75.14,51.82-21.37,24.92-83.55,33.78-175.15,25.53C1229.8,1443.25,1191.34,1421.71,1221.13,1396.92Z" transform="translate(-104.77 -160.49)"/><path class="cls-15" d="M1352.78,1447.77c-15.92,0-33.42-.85-52.4-2.56-39.5-3.56-66.68-14.26-70.94-27.93-2.56-8.22,3.4-15.35,8.85-19.88,12.79-10.64,52.77-34.09,147.58-22,36.89,4.69,63.21,16.48,68.71,30.74,2.18,5.66,1,11.42-3.53,16.66-9.35,10.91-27.29,18.35-53.32,22.13A317.2,317.2,0,0,1,1352.78,1447.77Zm-16.22-71.66a247,247,0,0,0-45.81,3.94c-27,5.12-42,14-49.87,20.47h0c-6.54,5.44-9.08,10.67-7.56,15.55,3.7,11.89,30.17,21.74,67.42,25.1,77.36,7,129.64-.5,147.23-21,3.51-4.09,4.46-8.32,2.82-12.56-4.88-12.68-30.56-23.74-65.44-28.18A387.9,387.9,0,0,0,1336.56,1376.11Z" transform="translate(-104.77 -160.49)"/><polygon class="cls-16" points="1106.1 1244.75 1106.1 1226.85 1367.96 1225.23 1367.59 1244.75 1106.1 1244.75"/><path class="cls-16" d="M1221.13,1386.84c23.83-19.83,78.19-37.26,171.71-25.35,60.9,7.75,92.72,31.31,75.14,51.82-21.37,24.93-83.55,33.78-175.15,25.53C1229.8,1433.17,1191.34,1411.63,1221.13,1386.84Z" transform="translate(-104.77 -160.49)"/><path class="cls-14" d="M1221.13,1369.6c23.83-19.83,78.19-37.26,171.71-25.35,60.9,7.75,92.72,31.31,75.14,51.82-21.37,24.93-83.55,33.78-175.15,25.53C1229.8,1415.93,1191.34,1394.39,1221.13,1369.6Z" transform="translate(-104.77 -160.49)"/><path class="cls-15" d="M1352.78,1420.45q-23.88,0-52.4-2.56c-39.5-3.56-66.68-14.26-70.94-27.93-2.56-8.22,3.4-15.34,8.85-19.88,12.79-10.64,52.77-34.09,147.58-22,36.89,4.7,63.21,16.48,68.71,30.74,2.18,5.66,1,11.43-3.53,16.66-9.35,10.91-27.29,18.35-53.32,22.13A317.1,317.1,0,0,1,1352.78,1420.45Zm-16.22-71.66a247,247,0,0,0-45.81,3.94c-27,5.12-42,14-49.87,20.47h0c-6.54,5.44-9.08,10.67-7.56,15.55,3.7,11.89,30.17,21.74,67.42,25.1,77.36,7,129.64-.5,147.23-21,3.51-4.09,4.46-8.32,2.82-12.56-4.88-12.67-30.56-23.73-65.44-28.18A387.9,387.9,0,0,0,1336.56,1348.79Z" transform="translate(-104.77 -160.49)"/><polygon class="cls-16" points="1109.2 1211.25 1109.2 1193.35 1371.06 1191.73 1370.69 1211.25 1109.2 1211.25"/><path class="cls-16" d="M1224.23,1353.33c23.83-19.82,78.18-37.26,171.71-25.35,60.9,7.76,92.72,31.32,75.14,51.82-21.37,24.93-83.55,33.79-175.15,25.54C1232.9,1399.66,1194.44,1378.12,1224.23,1353.33Z" transform="translate(-104.77 -160.49)"/><path class="cls-14" d="M1224.23,1336.1c23.83-19.83,78.18-37.27,171.71-25.36,60.9,7.76,92.72,31.32,75.14,51.83-21.37,24.92-83.55,33.78-175.15,25.53C1232.9,1382.42,1194.44,1360.88,1224.23,1336.1Z" transform="translate(-104.77 -160.49)"/><path class="cls-15" d="M1355.88,1387c-15.92,0-33.42-.86-52.4-2.57-39.5-3.55-66.68-14.25-70.94-27.92-2.56-8.22,3.4-15.35,8.85-19.88h0c12.79-10.64,52.77-34.09,147.58-22,36.88,4.69,63.21,16.47,68.71,30.74,2.18,5.66,1,11.42-3.53,16.66-9.35,10.91-27.29,18.35-53.33,22.12A315.37,315.37,0,0,1,1355.88,1387ZM1244,1339.7c-6.54,5.44-9.08,10.67-7.56,15.55,3.7,11.89,30.17,21.74,67.42,25.09,77.36,7,129.64-.49,147.23-21,3.51-4.09,4.46-8.32,2.82-12.56-4.88-12.68-30.57-23.74-65.44-28.18-36.18-4.61-68-4.39-94.6.64-27,5.12-42,14-49.87,20.47Z" transform="translate(-104.77 -160.49)"/><path class="cls-15" d="M1321.4,1372.11l1.8-2.62c.66-1-1-1.89-3.85-2.21a119.37,119.37,0,0,1-17.45-3.11c-2.22-.6-2.71-1.64-1.19-2.44l1.06-.55c1.84-1,5.85-1.19,8.57-.48a112.81,112.81,0,0,0,19.67,3.1c13,1,20.88-1.46,23.29-5s-.74-5.44-13-8.26c-17-3.82-33.51-8-29.83-13.33,3.2-4.64,15.23-8.7,36.94-7.34,2.59.16,4.88-.64,5.46-1.48l2-2.86c.7-1,3.81-1.66,7-1.43h0c3.13.23,5.1,1.24,4.4,2.26l-1.64,2.39c-.65.93.94,1.88,3.71,2.19a110.27,110.27,0,0,1,13.28,2.26c2.44.59,3,1.71,1.37,2.54l-1,.53c-1.82.91-5.63,1.12-8.33.48a103.75,103.75,0,0,0-16.85-2.46c-14.09-1-21.35,1.4-23,3.85-2.19,3.19,7.46,4.21,21.87,7.58,17.08,4,26.48,8.45,24.29,14-2.33,5.91-15.58,9.2-39.3,8.67-2.63-.06-4.88.63-5.46,1.47l-2.1,3c-.7,1-3.81,1.66-7,1.43h-.18C1322.67,1374.14,1320.7,1373.13,1321.4,1372.11Z" transform="translate(-104.77 -160.49)"/><polygon class="cls-16" points="1112.05 1180.23 1112.05 1162.33 1373.92 1160.71 1373.54 1180.23 1112.05 1180.23"/><path class="cls-16" d="M1227.08,1322.32c23.83-19.83,78.19-37.27,171.71-25.36,60.91,7.76,92.72,31.32,75.14,51.83-21.37,24.92-83.54,33.78-175.15,25.53C1235.75,1368.64,1197.29,1347.1,1227.08,1322.32Z" transform="translate(-104.77 -160.49)"/><path class="cls-14" d="M1227.08,1305.08c23.83-19.83,78.19-37.27,171.71-25.35,60.91,7.75,92.72,31.31,75.14,51.82-21.37,24.92-83.54,33.78-175.15,25.53C1235.75,1351.41,1197.29,1329.86,1227.08,1305.08Z" transform="translate(-104.77 -160.49)"/><path class="cls-15" d="M1358.73,1355.93c-15.91,0-33.41-.86-52.4-2.56-39.49-3.56-66.67-14.26-70.93-27.93-2.56-8.22,3.39-15.35,8.84-19.88,12.79-10.64,52.77-34.09,147.58-22,36.89,4.7,63.22,16.48,68.72,30.74,2.18,5.66,1,11.42-3.53,16.66-9.35,10.91-27.3,18.35-53.33,22.12A315.52,315.52,0,0,1,1358.73,1355.93Zm-16.21-71.66a247.13,247.13,0,0,0-45.82,3.94c-27,5.12-42,14-49.86,20.47h0c-6.54,5.44-9.09,10.67-7.57,15.55,3.71,11.89,30.17,21.74,67.43,25.1,77.35,7,129.64-.5,147.23-21,3.5-4.09,4.45-8.32,2.82-12.56-4.88-12.68-30.57-23.74-65.44-28.18A388,388,0,0,0,1342.52,1284.27Z" transform="translate(-104.77 -160.49)"/><path class="cls-15" d="M1324.25,1341.09l1.81-2.62c.65-1-1-1.89-3.86-2.21a119.37,119.37,0,0,1-17.45-3.11c-2.21-.6-2.7-1.64-1.18-2.44l1-.55c1.84-1,5.85-1.19,8.58-.48a112.49,112.49,0,0,0,19.67,3.1c13,1,20.87-1.46,23.28-5s-.74-5.44-13-8.26c-17-3.82-33.5-8-29.82-13.32,3.2-4.65,15.22-8.7,36.94-7.35,2.59.16,4.88-.64,5.45-1.47l2-2.87c.7-1,3.81-1.66,6.94-1.43h0c3.14.23,5.11,1.24,4.4,2.26l-1.64,2.39c-.64.93.94,1.88,3.71,2.19a110.84,110.84,0,0,1,13.29,2.26c2.44.6,3,1.71,1.37,2.54l-1,.53c-1.82.91-5.62,1.12-8.32.48a103.91,103.91,0,0,0-16.86-2.46c-14.09-1-21.34,1.4-23,3.85-2.2,3.19,7.46,4.21,21.86,7.58,17.08,4,26.49,8.45,24.3,14-2.34,5.91-15.59,9.2-39.3,8.67-2.64-.06-4.89.63-5.46,1.47l-2.1,3c-.71,1-3.82,1.66-7,1.43h-.18C1325.52,1343.12,1323.55,1342.11,1324.25,1341.09Z" transform="translate(-104.77 -160.49)"/><polygon class="cls-16" points="1172.75 1141.27 1172.75 1123.37 1434.62 1121.75 1434.25 1141.27 1172.75 1141.27"/><path class="cls-16" d="M1287.79,1283.36c23.82-19.83,78.18-37.27,171.7-25.36,60.91,7.76,92.72,31.32,75.15,51.82-21.37,24.93-83.55,33.79-175.16,25.54C1296.45,1329.68,1258,1308.14,1287.79,1283.36Z" transform="translate(-104.77 -160.49)"/><path class="cls-14" d="M1287.79,1266.12c23.82-19.83,78.18-37.27,171.7-25.36,60.91,7.76,92.72,31.32,75.15,51.83-21.37,24.92-83.55,33.78-175.16,25.53C1296.45,1312.44,1258,1290.9,1287.79,1266.12Z" transform="translate(-104.77 -160.49)"/><path class="cls-15" d="M1419.43,1317c-15.91,0-33.41-.86-52.4-2.57-39.49-3.55-66.67-14.26-70.93-27.93-2.56-8.21,3.4-15.34,8.84-19.87h0c12.79-10.64,52.77-34.09,147.58-22,36.89,4.69,63.22,16.47,68.72,30.74,2.18,5.66,1,11.42-3.53,16.66-9.35,10.91-27.3,18.35-53.33,22.12A315.52,315.52,0,0,1,1419.43,1317Zm-16.21-71.66a247.13,247.13,0,0,0-45.82,3.94c-27,5.12-42,14-49.86,20.47h0c-6.54,5.44-9.09,10.67-7.57,15.55,3.71,11.89,30.17,21.74,67.43,25.09,77.35,7,129.64-.49,147.23-21,3.5-4.09,4.45-8.32,2.82-12.56-4.88-12.68-30.57-23.74-65.44-28.18A388,388,0,0,0,1403.22,1245.31Z" transform="translate(-104.77 -160.49)"/><polygon class="cls-16" points="1132.04 1115.57 1132.04 1097.67 1393.91 1096.05 1393.54 1115.57 1132.04 1115.57"/><path class="cls-16" d="M1247.08,1257.65c23.82-19.82,78.18-37.26,171.7-25.35,60.91,7.76,92.72,31.32,75.15,51.82-21.37,24.93-83.55,33.79-175.16,25.54C1255.74,1304,1217.29,1282.44,1247.08,1257.65Z" transform="translate(-104.77 -160.49)"/><path class="cls-14" d="M1247.08,1240.42c23.82-19.83,78.18-37.27,171.7-25.36,60.91,7.76,92.72,31.32,75.15,51.82-21.37,24.93-83.55,33.79-175.16,25.54C1255.74,1286.74,1217.29,1265.2,1247.08,1240.42Z" transform="translate(-104.77 -160.49)"/><path class="cls-15" d="M1378.73,1291.27q-23.88,0-52.41-2.57c-39.49-3.55-66.67-14.26-70.93-27.93-2.56-8.21,3.4-15.34,8.84-19.87h0c12.79-10.64,52.77-34.09,147.58-22,36.89,4.69,63.22,16.47,68.72,30.74,2.18,5.66,1,11.42-3.53,16.66-9.35,10.91-27.3,18.35-53.33,22.12A315.37,315.37,0,0,1,1378.73,1291.27ZM1266.83,1244c-6.54,5.44-9.09,10.67-7.57,15.55,3.71,11.89,30.17,21.74,67.43,25.09,77.35,7,129.64-.49,147.23-21,3.51-4.09,4.46-8.32,2.82-12.56-4.88-12.68-30.57-23.74-65.44-28.18-36.19-4.61-68-4.39-94.61.64-27,5.12-42,14-49.86,20.47Z" transform="translate(-104.77 -160.49)"/><path class="cls-15" d="M1344.25,1276.43l1.8-2.62c.65-1-1-1.89-3.86-2.21a120.73,120.73,0,0,1-17.45-3.11c-2.21-.6-2.7-1.65-1.18-2.44l1-.55c1.85-1,5.85-1.19,8.58-.48a112.65,112.65,0,0,0,19.67,3.1c13,.94,20.88-1.46,23.28-5s-.74-5.44-13-8.27c-17-3.81-33.5-8-29.82-13.31,3.2-4.65,15.22-8.71,36.94-7.35,2.59.16,4.88-.64,5.45-1.48l2-2.86c.7-1,3.81-1.66,6.94-1.43h0c3.14.23,5.11,1.24,4.41,2.26l-1.65,2.39c-.64.93,1,1.88,3.71,2.19a108.86,108.86,0,0,1,13.29,2.26c2.44.59,3,1.71,1.37,2.54l-1,.53c-1.82.91-5.62,1.12-8.32.48a104.84,104.84,0,0,0-16.85-2.47c-14.1-1-21.35,1.41-23,3.86-2.2,3.19,7.46,4.21,21.86,7.58,17.08,4,26.49,8.45,24.3,14-2.34,5.91-15.59,9.19-39.3,8.67-2.63-.06-4.88.63-5.46,1.47l-2.1,3c-.71,1-3.82,1.66-7,1.43h-.18C1345.51,1278.46,1343.54,1277.45,1344.25,1276.43Z" transform="translate(-104.77 -160.49)"/></svg>